<?xml version="1.0" encoding="UTF-8"?><svg id="_레이어_1" xmlns="http://www.w3.org/2000/svg" xmlns:xlink="http://www.w3.org/1999/xlink" viewBox="0 0 102.87 17.19"><defs><style>.cls-1{fill:none;}.cls-2{clip-path:url(#clippath);}.cls-3{fill:#00bbed;}.cls-4{fill:#0545b1;}.cls-5{fill:#fff;}.cls-6{fill:#f2338a;}.cls-7{fill:#1ac62f;}.cls-8{fill:#1a1919;}</style><clipPath id="clippath"><path class="cls-1" d="m87.69,14.73c-.33-1.6-.5-3.25-.5-4.95,0-1.32.08-2.61.3-3.87.05-.31.16-.63.16-.63.23-.72.76-1.22,1.44-1.53,0,0,.34-.17,1.11-.37,2.09-.55,4.34-.54,4.34-.54h.1c1.48,0,2.91.19,4.28.54,0,0,.8.22,1.17.38,0,0,1.15.45,1.45,1.51.01.04.11.37.14.6.19,1.27.31,2.57.31,3.9,0,1.7-.17,3.36-.5,4.97,0,0,0,0,0,.01-.18.87-.86,1.56-1.73,1.75-.03,0-.05.01-.08.02-1.65.33-3.35.5-5.09.5s-3.43-.17-5.07-.49c-.04,0-.08-.01-.11-.02-.53-.12-.99-.42-1.3-.84,0,0-.29-.31-.42-.94Z"/></clipPath></defs><g id="_가로형"><path class="cls-4" d="m10.86,3.5s-.04-3,3.4-3.04h3.22c.69,0,1.28.48,1.28,1.07s-.58,1.09-1.28,1.09h-1.49c-.99,0-.9.72-.9.72v1.4h1.8c.71,0,1.3.46,1.3,1.05s-.51,1.07-1.2,1.07h-1.9v7.12c0,1-.86,1.89-2.07,1.89s-2.16-.81-2.16-1.83V3.5Z"/><path class="cls-4" d="m22.83,13.96c0,1.08-.87,1.91-2.07,1.91s-2.16-.82-2.16-1.83v-6.41s0-2.83,3.49-2.83h2.77c1.45,0,1.45,1.11,1.45,1.11,0,0,0,1.07-1.36,1.07h-1.22c-.9,0-.9.7-.9.7v6.28Z"/><path class="cls-4" d="m43.39,4.73c3.61,0,3.61,2.9,3.61,2.9v3c0,.61-.59,1.05-1.3,1.05h-3.98s0,1.29,0,1.29c0,0,.04.68.96.68h2.24c.72,0,1.28.48,1.28,1.09s-.58,1.13-1.28,1.13h-3.92c-3.44,0-3.44-2.86-3.44-2.86v-5.37s.03-2.87,3.47-2.9h2.38Zm-.69,2.27c-.94,0-.94.68-.94.68v1.87h2.67v-1.82s0-.73-.85-.73h-.88Z"/><path class="cls-4" d="m56.05,13.71c.72-.02,1.36.54,1.36,1.14s-.64,1.02-1.36,1.02h-5.63c-1.18,0-2.04-.72-2.04-1.73v-7.58c0-1,.98-1.83,2.16-1.83,0,0-1.08,0,5.72,0,.72,0,1.28.48,1.28,1.08s-.56,1.05-1.28,1.05h-3.05c-.52,0-.52.45-.52.45v5.94s-.04.46.52.46h2.83Z"/><path class="cls-4" d="m67.2,7.61v6.4c0,1.02-.98,1.86-2.19,1.86h-.05c-4.39,0-3.6,0-3.6,0-3.6,0-3.6-2.9-3.6-2.9v-1.43s.22-2.62,3.6-2.6h1.54v-1.31s0-.68-.85-.68h-1.96c-.72,0-1.41-.42-1.41-1.03s.66-1.19,1.37-1.19h3.69c3.44.02,3.44,2.87,3.44,2.87Zm-6.01,6.07h1.71v-2.55h-1.71c-.93,0-.84,1.28-.84,1.28,0,0-.1,1.28.84,1.28Z"/><path class="cls-4" d="m77.24,1.92s0-.98-1.3-.98h-8.99c-1.3,0-1.3.95-1.3.95,0,0,0,.94,1.21.94h1.88c.81,0,.81.61.81.61v5.79c0,.95.77,1.68,1.85,1.68s1.93-.73,1.93-1.61V3.44c.01-.13.12-.58.8-.58h1.88c1.21,0,1.21-.94,1.21-.94Z"/><path class="cls-4" d="m9.44,7.6v6.4c0,1.02-.98,1.86-2.19,1.86h-3.65c-3.6,0-3.6-2.9-3.6-2.9v-1.43s.23-2.62,3.6-2.61h1.54v-1.31s0-.68-.85-.68h-1.96c-.72,0-1.41-.42-1.41-1.03s.66-1.19,1.38-1.19h3.69c3.45.02,3.45,2.88,3.45,2.88Zm-6.01,6.07h1.71v-2.55h-1.71c-.97,0-.84,1.27-.84,1.27,0,0-.1,1.28.84,1.28Z"/><path class="cls-4" d="m32.56,4.73c3.61,0,3.61,2.9,3.61,2.9v3c0,.61-.59,1.05-1.3,1.05h-3.98s0,1.29,0,1.29c0,0,.04.68.96.68h2.24c.72,0,1.28.48,1.28,1.09s-.58,1.13-1.28,1.13h-3.92c-3.44,0-3.44-2.86-3.44-2.86v-5.37s.03-2.87,3.47-2.9h2.38Zm-.69,2.27c-.94,0-.94.68-.94.68v1.87h2.67v-1.82s0-.73-.85-.73h-.88Z"/><path class="cls-4" d="m85.14,1.26c-.85-.57-2.04-.27-2.66.66l-3.41,4.57-1.23-2.64c-.23-.5-1.2-.73-1.72-.49-.52.24-.84.99-.61,1.48l2.25,5.16c.18.38.57.69,1.21.84.57.14,1.64-.01,2.27-.94l4.31-5.91c.63-.93.44-2.15-.4-2.71Z"/></g><path class="cls-4" d="m98.58.29c.14.29,0,.63-.31.74l-3.19,1.45c-.38.17-.63.14-.99-.02l-2.06-.98c-.29-.16-.32-.55-.14-.78h0c.19-.23.54-.27.76-.06l1.59,1.28c.17.14.35.15.5.12.06-.01.11-.04.19-.08l2.92-1.87c.27-.15.61-.07.75.21h0Z"/><g class="cls-2"><path class="cls-4" d="m102.66,6.2c-.23-1.68-.61-2.63-2.79-3.13-1.97-.45-3.39-.53-4.56-.59-.25-.01-.5-.01-.75,0-1.17.05-2.59.14-4.56.59-2.18.49-2.57,1.45-2.79,3.13-.22,1.65-.2,3.64-.2,3.69,0,.06-.02,2.04.2,3.69.23,1.68.61,2.63,2.79,3.13,1.97.45,3.39.42,4.56.47.25.01.5.01.75,0,1.17-.05,2.59-.02,4.56-.47,2.18-.49,2.57-1.45,2.79-3.13.22-1.65.2-3.64.2-3.69,0-.06.02-2.04-.2-3.69Z"/><path class="cls-3" d="m97.14,7.6c-.02-.58-.02-1.15,0-1.72.02-.78.58-1.09.58-1.09.38-.23.88-.26,1.32-.07.67.3,1.55.76,1.55.76.5.27.92.5,1.45.84,0,0,0,0,0,0,.03.01.05.03.08.05.56.36.76,1.09.44,1.68-.1.19-.25.35-.42.46,0,0,0,0,0,0-.5.33-.93.65-1.44.96-.83.51-1.34.75-1.34.75-.37.21-1,.29-1.43.07-.66-.34-.68-1.12-.68-1.12,0,0-.06-.64-.09-1.59Z"/><path class="cls-5" d="m98.02,12.22c-1.66,1.54-5.25,1.54-6.86,0-.13-.12-.34-.12-.46.01-.13.13-.12.34,0,.46,1.86,1.77,5.84,1.78,7.75,0,.13-.12.14-.33.02-.46-.12-.13-.33-.14-.46-.02Z"/><path class="cls-7" d="m96.7,9.65s0,0,0-.01v-.1s-.23-2.44-.23-2.44v-.07c-.01-.05-.02-.11-.03-.16-.12-.48-.51-.85-1-.93-.07-.01-.14-.02-.21-.02h-1.25c-.06,0-.12,0-.18.01-.5.08-.91.45-1.03.94-.01.04-.02.08-.02.13v.13s-.23,2.42-.23,2.42v.06s0,.03,0,.04c0,.02,0,.03,0,.05,0,.58.4,1.08.94,1.22.1.03.21.04.32.04h1.7c.07,0,.14,0,.21-.02.6-.1,1.05-.62,1.05-1.24,0-.02,0-.03,0-.05Z"/><path class="cls-6" d="m91.99,8.31c-.48,1.61-1.92,2.43-3.52,2.15-1.66-.29-2.85-2.63-2.03-4.07.71-1.24,2.25-2.15,3.86-1.66,1.7.52,2.18,1.95,1.69,3.57Z"/><circle class="cls-8" cx="99.46" cy="7.53" r="1.06"/><circle class="cls-8" cx="89.57" cy="7.53" r="1.06"/></g></svg>