<?xml version="1.0" encoding="utf-8"?>
<!-- Generator: Adobe Illustrator 27.5.0, SVG Export Plug-In . SVG Version: 6.00 Build 0)  -->
<svg version="1.1" id="레이어_1" xmlns="http://www.w3.org/2000/svg" xmlns:xlink="http://www.w3.org/1999/xlink" x="0px"
	 y="0px" viewBox="0 0 106 32" style="enable-background:new 0 0 106 32;" xml:space="preserve">
<style type="text/css">
	.st0{fill:#221E1F;}
	.st1{fill:#FDD000;}
</style>
<g>
	<polygon class="st0" points="97.96,27.44 2.16,27.44 8.36,15.16 104.16,15.16 	"/>
	<g>
		<path class="st0" d="M43.83,4.26c-0.14,0-16.43,0-16.43,0l-11.09,0c-0.18,0-0.46,0.15-0.55,0.31c0,0-2.07,3.45-2.73,4.55
			c-0.07,0.11,0.01,0.25,0.14,0.25c0.39,0,1.35,0,1.35,0c0.36,0,0.41,0.14,0.2,0.51c0,0-4.35,7.16-4.94,8.12c0.29,0,7.27,0,7.27,0
			c0.17,0,0.41-0.15,0.49-0.3l1.07-2.18c0.16-0.32,0.31-0.25,0.52-0.25c0.3,0.01,0.63,0.04,0.72,0.04c0.15,0,0.19,0.2,0.19,0.2
			l-0.06,2.33c0,0.06,0.03,0.1,0.05,0.12c0.02,0.02,0.06,0.05,0.12,0.05h27.38c0.17,0,0.41-0.15,0.49-0.3l0.84-1.7
			c0.15-0.3,0.34-0.68,0.71-0.68c0.09,0,0.55,0,0.64,0.01c0.4,0,0.3,0.41,0.3,0.41c0,0-0.06,2.1-0.06,2.1c0,0.06,0.03,0.1,0.04,0.12
			c0.02,0.02,0.06,0.05,0.12,0.05h3.66c0.02,0,0.61,0,0.61,0h9.18c2.51,0,4.01-0.8,4.02-0.81c0.18-0.08,0.33-0.27,0.43-0.17
			c0.12,0.12,0.07,0.34,0.07,0.5c0,0.16-0.05,0.32-0.11,0.48c0.02,0,18.25,0,18.25,0c0.22,0,0.57-0.15,0.71-0.31l1.14-1.19
			c0.15-0.16,0.29-0.32,0.51-0.32c0.21,0,0.32,0.35,0.32,0.35l0.61,1.16c0.08,0.16,0.33,0.31,0.51,0.31c0,0,7.48,0,7.79,0
			c-0.15-0.24-3.79-6.18-3.79-6.18c-0.35-0.56-0.4-0.9-0.17-1.12c0.06-0.05,6.1-5.94,6.62-6.44c-0.63,0-7.85,0-7.85,0
			c-0.22,0-0.56,0.15-0.71,0.31c0,0-0.16,0.14-0.37,0.39c-0.3,0.35-0.69,0.81-0.85,0.83c-0.21,0.02-0.27-0.2-0.41-0.46
			c0,0-0.41-0.75-0.41-0.75c-0.09-0.18-0.31-0.31-0.41-0.31L63.27,4.27c-3.83,0-5.07,1.71-5.08,1.73l-0.03,0.04l-0.03,0.03
			c-0.35,0.32-0.15,0.28-0.76,0.26c-0.13-0.01-0.4,0.19-0.42-0.28l-0.06-1.59c-0.01-0.11-0.1-0.2-0.2-0.2h-9.96
			c-0.18,0-0.45,0.15-0.55,0.31L45.32,6c-0.14,0.3-0.5,0.59-0.78,0.59c-0.07,0-0.71,0.02-0.82-0.02c-0.26-0.1-0.18-0.33-0.14-0.43
			c0.01-0.04,0.35-1.13,0.5-1.63C44.12,4.39,43.97,4.26,43.83,4.26z"/>
		<g>
			<g>
				<polygon class="st1" points="71.26,13.04 71.04,13.78 75.67,13.78 75.88,13.04 				"/>
				<path class="st1" d="M70.81,14.54l-0.22,0.74h11.78c0.17-0.23,0.31-0.48,0.43-0.74H70.81z"/>
				<path class="st1" d="M71.71,11.57l-0.22,0.72h11.73c-0.06-0.29-0.18-0.53-0.36-0.72H71.71z"/>
				<path class="st1" d="M78.28,13.04c-0.01,0.11-0.03,0.23-0.07,0.36c-0.04,0.14-0.1,0.27-0.16,0.38h5.04
					c0.01-0.03,0.02-0.06,0.03-0.09c0.06-0.23,0.11-0.44,0.13-0.65H78.28z"/>
				<path class="st1" d="M83.96,6.3c-0.43-0.53-1.18-0.81-2.41-0.78h-9.62L71.7,6.3H83.96z"/>
				<path class="st1" d="M72.16,10.05l-0.23,0.76h10.7c0.41-0.17,0.79-0.42,1.1-0.76H72.16z"/>
				<path class="st1" d="M71.47,7.05l-0.23,0.76h13.18c-0.01-0.27-0.04-0.53-0.1-0.76H71.47z"/>
				<polygon class="st1" points="76.98,9.29 77.19,8.56 72.6,8.56 72.39,9.29 				"/>
				<path class="st1" d="M70.36,16.03l-0.23,0.77h8.54c1.3,0,2.24-0.28,2.93-0.77H70.36z"/>
				<path class="st1" d="M79.59,8.56c-0.01,0.12-0.03,0.26-0.08,0.41c-0.04,0.12-0.08,0.22-0.13,0.32h4.81
					c0.09-0.22,0.15-0.47,0.18-0.73H79.59z"/>
			</g>
			<g>
				<polygon class="st1" points="85.73,13.04 84.97,13.78 94.25,13.78 93.79,13.04 				"/>
				<polygon class="st1" points="87.26,11.57 86.51,12.29 93.33,12.29 92.89,11.57 				"/>
				<polygon class="st1" points="87.13,10.05 87.59,10.81 92.49,10.81 93.27,10.05 				"/>
				<polygon class="st1" points="83.42,15.28 88.05,15.28 88.75,14.54 84.19,14.54 				"/>
				<polygon class="st1" points="97.13,6.3 97.93,5.52 93.22,5.52 92.49,6.3 				"/>
				<polygon class="st1" points="94.71,14.54 89.72,14.54 90.12,15.28 95.17,15.28 				"/>
				<polygon class="st1" points="90.51,16.03 90.91,16.79 96.09,16.79 95.62,16.03 				"/>
				<polygon class="st1" points="89.88,6.3 89.46,5.52 84.42,5.52 84.89,6.3 				"/>
				<polygon class="st1" points="82.64,16.03 81.86,16.79 86.61,16.79 87.34,16.03 				"/>
				<polygon class="st1" points="86.24,8.56 86.68,9.29 94.05,9.29 94.79,8.56 				"/>
				<polygon class="st1" points="91.77,7.05 91.05,7.81 95.57,7.81 96.35,7.05 				"/>
				<polygon class="st1" points="85.33,7.05 85.79,7.81 90.7,7.81 90.28,7.05 				"/>
			</g>
			<path class="st1" d="M36.22,8.14h-2.4l-2.68,8.63h-4.67l2.68-8.63h-2.7l0.8-2.64h9.77L36.22,8.14z"/>
			<path class="st1" d="M56.58,16.78h8.08c2.58,0,4.03-0.95,4.69-3.49c0.32-1.25,0.3-2.24-0.27-2.82c-0.51-0.52-1.38-0.77-2.66-0.77
				h-2.97c-0.81,0-0.88-0.35-0.86-0.49c0.05-0.51,0.24-1.27,1.82-1.27h1.91l-0.24,0.81h3.36l0.98-3.24h-7.76
				c-2.58,0-4.1,0.98-4.65,3.28c-0.29,1.24-0.16,2.38,0.47,3c0.54,0.54,1.43,0.81,2.69,0.81h2.91c0.69,0,0.71,0.37,0.66,0.59
				c-0.19,0.86-0.99,1.15-2.11,1.15h-1.92l0.25-0.84h-3.38l-1.04,3.28h0.01H56.58z"/>
			<polygon class="st1" points="41.55,16.78 43.14,14.19 39.8,14.19 42.49,5.5 37.87,5.5 34.33,16.78 			"/>
			<path class="st1" d="M25.21,5.5h-8.58l-1.59,2.65h2.15l-5.24,8.63h4.65l1.37-2.79h3.27l-0.03,2.79h4.54L25.21,5.5z M19.28,11.37
				l1.56-3.2h0.58l-0.08,3.2H19.28z"/>
			<path class="st1" d="M55.69,5.5h-8.64l-1.59,2.65l2.22,0l-5.24,8.64h4.65l1.37-2.79h3.27l-0.04,2.79h4.55L55.69,5.5z
				 M49.76,11.37l1.56-3.2h0.58l-0.08,3.2H49.76z"/>
		</g>
	</g>
	<g>
		<path class="st1" d="M11.84,20.12l-0.36,0.75l-1.86,3.66H8.78l2.75-5.42h0.85l0.92,3.51l4.27-3.51h0.95l-2.75,5.42h-0.95
			l1.86-3.66c0.13-0.26,0.28-0.51,0.45-0.75c-0.29,0.34-0.54,0.59-0.74,0.76l-3.51,2.8H12.6l-0.75-2.78
			C11.79,20.69,11.79,20.43,11.84,20.12z"/>
		<path class="st1" d="M20.25,20.4c0.25-0.5,0.52-0.83,0.8-1.02c0.28-0.18,0.68-0.27,1.19-0.27h3.92c0.51,0,0.81,0.09,0.91,0.27
			c0.09,0.18,0.02,0.52-0.24,1.02l-1.45,2.85c-0.25,0.5-0.52,0.83-0.79,1.01c-0.28,0.18-0.67,0.27-1.19,0.27h-3.92
			c-0.52,0-0.83-0.09-0.92-0.26c-0.09-0.18-0.01-0.51,0.24-1.02L20.25,20.4z M19.59,23.71h4.53l1.92-3.79h-4.53L19.59,23.71z"/>
		<path class="st1" d="M32.06,19.92l-2.34,4.61h-1.02l2.34-4.61h-2.56l0.41-0.81h6.15l-0.41,0.81H32.06z"/>
		<path class="st1" d="M35.79,20.4c0.25-0.5,0.52-0.83,0.8-1.02c0.28-0.18,0.68-0.27,1.19-0.27h3.92c0.51,0,0.81,0.09,0.91,0.27
			c0.1,0.18,0.02,0.52-0.24,1.02l-1.45,2.85c-0.25,0.5-0.52,0.83-0.79,1.01c-0.28,0.18-0.67,0.27-1.19,0.27h-3.92
			c-0.52,0-0.83-0.09-0.92-0.26c-0.09-0.18-0.01-0.51,0.24-1.02L35.79,20.4z M35.14,23.71h4.53l1.92-3.79h-4.53L35.14,23.71z"/>
		<path class="st1" d="M42.65,24.53l2.75-5.42h4.37c0.76,0,0.96,0.35,0.61,1.05l-0.62,1.21c-0.35,0.69-0.91,1.03-1.67,1.03h-0.72
			l1.31,2.12h-1.37l-1.09-2.12h-1.49l-1.08,2.12H42.65z M48.91,19.91h-2.89l-0.89,1.75h2.89c0.27,0,0.48-0.06,0.61-0.19
			c0.08-0.08,0.16-0.2,0.24-0.36l0.33-0.65C49.4,20.09,49.3,19.91,48.91,19.91z"/>
		<path class="st1" d="M57.62,19.92h-3.8l-0.71,1.4h3.48c0.51,0,0.81,0.09,0.91,0.27c0.09,0.18,0.01,0.52-0.24,1.01l-0.33,0.65
			c-0.25,0.49-0.51,0.83-0.79,1.01c-0.27,0.18-0.67,0.27-1.18,0.27h-3.3c-0.52,0-0.83-0.09-0.92-0.27
			c-0.09-0.18-0.01-0.52,0.24-1.01l0.08-0.15l1.03-0.19l-0.41,0.81h4.09l0.77-1.52h-3.49c-0.51,0-0.81-0.09-0.91-0.27
			c-0.09-0.18-0.01-0.52,0.24-1.01l0.26-0.51c0.26-0.5,0.52-0.84,0.79-1.02c0.27-0.18,0.67-0.27,1.18-0.27h3.02
			c0.49,0,0.79,0.08,0.9,0.26c0.11,0.17,0.06,0.48-0.18,0.94l-0.06,0.13l-1.04,0.2L57.62,19.92z"/>
		<path class="st1" d="M58.64,24.53l2.75-5.42h4.57c0.79,0,1.01,0.35,0.66,1.05l-0.62,1.21c-0.35,0.69-0.92,1.03-1.71,1.03h-3.55
			l-1.08,2.12H58.64z M65.11,19.91h-3.1l-0.86,1.7h3.1c0.41,0,0.7-0.17,0.87-0.51l0.35-0.68C65.64,20.07,65.52,19.91,65.11,19.91z"
			/>
		<path class="st1" d="M68.36,20.4c0.25-0.5,0.52-0.83,0.8-1.02c0.28-0.18,0.68-0.27,1.19-0.27h3.92c0.51,0,0.82,0.09,0.91,0.27
			c0.09,0.18,0.02,0.52-0.24,1.02l-1.45,2.85c-0.25,0.5-0.52,0.83-0.79,1.01c-0.28,0.18-0.67,0.27-1.19,0.27H67.6
			c-0.52,0-0.83-0.09-0.92-0.26c-0.1-0.18-0.01-0.51,0.24-1.02L68.36,20.4z M67.71,23.71h4.53l1.92-3.79h-4.53L67.71,23.71z"/>
		<path class="st1" d="M75.22,24.53l2.75-5.42h4.38c0.76,0,0.96,0.35,0.61,1.05l-0.62,1.21c-0.35,0.69-0.91,1.03-1.67,1.03h-0.72
			l1.31,2.12H79.9l-1.09-2.12h-1.49l-1.08,2.12H75.22z M81.49,19.91h-2.89l-0.89,1.75h2.89c0.27,0,0.48-0.06,0.61-0.19
			c0.08-0.08,0.16-0.2,0.25-0.36l0.33-0.65C81.97,20.09,81.87,19.91,81.49,19.91z"/>
		<path class="st1" d="M88.02,19.92l-2.34,4.61h-1.02l2.34-4.61h-2.56l0.41-0.81H91l-0.41,0.81H88.02z"/>
		<path class="st1" d="M96.91,19.92h-3.8l-0.71,1.4h3.48c0.51,0,0.81,0.09,0.91,0.27c0.09,0.18,0.01,0.52-0.24,1.01l-0.33,0.65
			c-0.25,0.49-0.51,0.83-0.79,1.01c-0.27,0.18-0.67,0.27-1.18,0.27h-3.3c-0.52,0-0.83-0.09-0.92-0.27
			c-0.09-0.18-0.01-0.52,0.24-1.01l0.08-0.15l1.03-0.19l-0.41,0.81h4.09l0.77-1.52h-3.49c-0.51,0-0.82-0.09-0.91-0.27
			c-0.09-0.18-0.02-0.52,0.24-1.01l0.26-0.51c0.25-0.5,0.52-0.84,0.79-1.02c0.27-0.18,0.67-0.27,1.18-0.27h3.02
			c0.49,0,0.79,0.08,0.9,0.26c0.11,0.17,0.05,0.48-0.17,0.94l-0.06,0.13l-1.04,0.2L96.91,19.92z"/>
	</g>
</g>
</svg>
