<?xml version="1.0" encoding="utf-8"?>
<!-- Generator: Adobe Illustrator 27.5.0, SVG Export Plug-In . SVG Version: 6.00 Build 0)  -->
<svg version="1.1" id="레이어_1" xmlns="http://www.w3.org/2000/svg" xmlns:xlink="http://www.w3.org/1999/xlink" x="0px"
	 y="0px" viewBox="0 0 106 32" style="enable-background:new 0 0 106 32;" xml:space="preserve">
<g transform="matrix(1 0 0 -1 0 100.00040017)">
	<path d="M78.34,73.81c-2.37,0-4.55,0.8-6.29,2.14c1.77,2.26,2.83,5.11,2.83,8.2c0,3.09-1.06,5.93-2.83,8.2
		c1.74,1.34,3.93,2.14,6.29,2.14c5.7,0,10.34-4.64,10.34-10.34C88.68,78.45,84.04,73.81,78.34,73.81 M55.26,75.95
		c1.77,2.26,2.83,5.11,2.83,8.2c0,3.09-1.06,5.93-2.83,8.2c1.74,1.34,3.93,2.14,6.29,2.14c2.37,0,4.55-0.8,6.29-2.14
		c-1.77-2.26-2.83-5.11-2.83-8.2c0-3.09,1.06-5.93,2.83-8.2c-1.74-1.34-3.93-2.14-6.29-2.14C59.18,73.81,57,74.61,55.26,75.95
		 M38.47,75.95c1.77,2.26,2.83,5.11,2.83,8.2c0,3.09-1.06,5.93-2.83,8.2c1.74,1.34,3.93,2.14,6.29,2.14c2.37,0,4.55-0.8,6.29-2.14
		c-1.77-2.26-2.83-5.11-2.83-8.2c0-3.09,1.06-5.93,2.83-8.2c-1.74-1.34-3.93-2.14-6.29-2.14C42.4,73.81,40.22,74.61,38.47,75.95
		 M17.64,84.15c0,5.7,4.64,10.34,10.34,10.34c2.37,0,4.55-0.8,6.29-2.14c-1.77-2.26-2.83-5.11-2.83-8.2c0-3.09,1.06-5.93,2.83-8.2
		c-1.74-1.34-3.93-2.14-6.29-2.14C22.28,73.81,17.64,78.45,17.64,84.15 M36.37,78.12c-1.22,1.7-1.95,3.78-1.95,6.03
		c0,2.25,0.72,4.33,1.95,6.03c1.22-1.7,1.95-3.78,1.95-6.03C38.32,81.9,37.6,79.82,36.37,78.12 M53.16,78.12
		c-1.22,1.7-1.95,3.78-1.95,6.03c0,2.25,0.72,4.33,1.95,6.03c1.22-1.7,1.95-3.78,1.95-6.03C55.11,81.9,54.38,79.82,53.16,78.12
		 M69.94,78.12C68.72,79.82,68,81.9,68,84.15c0,2.25,0.72,4.33,1.95,6.03c1.22-1.7,1.95-3.78,1.95-6.03
		C71.89,81.9,71.17,79.82,69.94,78.12 M78.34,97.47c-3.18,0-6.1-1.12-8.39-2.99c-2.29,1.87-5.21,2.99-8.39,2.99
		c-3.18,0-6.1-1.12-8.39-2.99c-2.29,1.87-5.21,2.99-8.39,2.99c-3.18,0-6.1-1.12-8.39-2.99c-2.29,1.87-5.21,2.99-8.39,2.99
		c-7.35,0-13.32-5.98-13.32-13.32c0-7.35,5.98-13.32,13.32-13.32c3.18,0,6.1,1.12,8.39,2.99c2.29-1.87,5.21-2.99,8.39-2.99
		c3.18,0,6.1,1.12,8.39,2.99c2.29-1.87,5.21-2.99,8.39-2.99c3.18,0,6.1,1.12,8.39,2.99c2.29-1.87,5.21-2.99,8.39-2.99
		c7.35,0,13.32,5.98,13.32,13.32C91.66,91.49,85.68,97.47,78.34,97.47"/>
</g>
</svg>
