<?xml version="1.0" encoding="utf-8"?>
<!-- Generator: Adobe Illustrator 27.5.0, SVG Export Plug-In . SVG Version: 6.00 Build 0)  -->
<svg version="1.1" id="레이어_1" xmlns="http://www.w3.org/2000/svg" xmlns:xlink="http://www.w3.org/1999/xlink" x="0px"
	 y="0px" viewBox="0 0 106 32" style="enable-background:new 0 0 106 32;" xml:space="preserve">
<style type="text/css">
	.st0{fill:#442379;}
</style>
<path class="st0" d="M62.8,3.71c-2.41,0-4.25,0.94-6.15,3.22V4.28h-5.94v19.68h5.94V11.61C58.2,9.12,59.33,8.3,60.8,8.3
	c1.67,0,2.94,1.16,2.94,4v11.66h5.94v-12.6C69.68,5.48,65.75,3.71,62.8,3.71z M39.81,3.64c-5.7,0-9.73,4.21-9.73,10.18
	c0,0.11,0,0.21,0,0.32c0,0.1,0,0.21,0,0.32c0,6.06,4.2,10.02,10.69,10.02c1.44,0,4.94,0,8.26-2.57v-4.46
	c-2.72,2.06-4.52,2.35-6.86,2.35c-3.41,0-5.58-1.34-6.01-4.41h13.19c0.01-0.32,0.01-0.63,0.01-0.94
	C49.49,7.52,45.11,3.64,39.81,3.64z M36.3,11.64c0.35-1.8,1.6-3.12,3.44-3.12c1.81,0,3.08,1.34,3.44,3.12H36.3z M86.52,23.49
	l-0.03-0.08c3.54-1.24,5.98-4.68,5.98-9.36c0-7.77-6.08-10.52-10.77-10.52c-5.67,0-10.87,3.58-10.87,10.47
	c0,6.31,4.56,10.45,10.83,10.47c0.72,0.87,3.98,3.7,9.03,3.7c1.38,0,2.91-0.22,4.55-0.74l0.92-6.54
	C92.48,24,87.35,23.73,86.52,23.49z M84.69,18.6c-0.81,0.96-1.93,1.44-3.14,1.44c-1.57,0-2.74-0.73-3.58-1.98
	c-0.66-0.99-1-2.28-1-3.67c0-1.78,0.59-3.31,1.49-4.38c0.84-1.04,1.77-1.41,3.09-1.41c0.88,0,1.73,0.2,2.42,0.74
	c1.29,1.05,2.13,2.96,2.13,5C86.1,15.98,85.58,17.57,84.69,18.6z M27.66,14.24c-0.5-0.47-0.98-0.71-1.51-1
	c1.6-0.82,2.6-2.39,2.6-4.38c0-2.89-1.99-4.12-3.84-4.74c-1.06-0.36-1.99-0.36-3.17-0.39H10.16v20.31h12.01
	c1.6,0,3.34-0.09,4.99-1.36c1.7-1.33,2.24-3.16,2.24-4.58C29.39,16.27,28.53,15.01,27.66,14.24z M15.86,8.61h4.54
	c1.04,0,2.37,0.23,2.37,1.59c0,1.49-1.42,1.54-2.37,1.54h-4.54V8.61z M20.78,19.58h-4.93v-4.09h4.93c1.25,0,2.41,0.5,2.41,2.04
	C23.19,19.14,22.03,19.58,20.78,19.58z"/>
</svg>
