<?xml version="1.0" encoding="utf-8"?>
<!-- Generator: Adobe Illustrator 27.5.0, SVG Export Plug-In . SVG Version: 6.00 Build 0)  -->
<svg version="1.1" id="레이어_1" xmlns="http://www.w3.org/2000/svg" xmlns:xlink="http://www.w3.org/1999/xlink" x="0px"
	 y="0px" viewBox="0 0 106 32" style="enable-background:new 0 0 106 32;" xml:space="preserve">
<style type="text/css">
	.st0{fill:#231815;}
</style>
<g>
	<path class="st0" d="M58.99,22.43c3.16-0.52,5.53-1.02,10.02-2.09c0.16-0.04,0.16-0.08-0.02-0.1c-1.98-0.12-3.66-0.24-4.83-0.34
		c-0.28-0.02-0.3-0.12-0.18-0.28c0.32-0.4,0.66-0.48,1.5-0.48c0.78,0,2.74,0.02,4.71,0.04c3.92,0.02,7.77-0.97,12.58-2.57
		c0.06-0.02,0.04-0.06-0.02-0.06c-6.73,0.16-14.9,0.24-16.22,0.24c-0.2,0-0.18-0.14-0.04-0.3c0.3-0.36,0.64-0.54,1.76-0.62
		c1.56-0.12,14.84-0.76,17.02-0.83c2.57-0.1,4.15-0.49,6.27-2.11c0.62-0.46,1.44-1.16,2.18-1.89c0.12-0.12,0.12-0.2-0.1-0.18
		c-4.03,0.36-24.58,2.27-25.54,2.39c-1.76,0.22-2.56,0.69-3.22,1.73c-2.18,3.39-3.13,5.04-5.97,7.29
		C58.77,22.37,58.77,22.46,58.99,22.43z M53.16,23.2c-0.04,0-0.1,0-0.2-0.06c-3.93-2.35-7.95-5.97-8.77-10.19
		c-0.28-1.59,0.32-1.89,1.32-2.25c1.8-0.66,5.93-1.93,7.65-1.93c1.72,0,5.85,1.28,7.65,1.93c1,0.36,1.6,0.66,1.32,2.25
		c-0.82,4.22-4.83,7.84-8.77,10.19C53.26,23.2,53.19,23.2,53.16,23.2z M47.32,22.43c0.22,0.04,0.22-0.06,0.1-0.16
		c-2.84-2.25-3.79-3.9-5.97-7.29c-0.66-1.03-1.46-1.51-3.22-1.73c-0.96-0.12-21.51-2.03-25.54-2.39c-0.22-0.02-0.22,0.06-0.1,0.18
		c0.74,0.74,1.56,1.43,2.18,1.89c2.12,1.62,3.7,2.01,6.27,2.11c2.18,0.08,15.46,0.72,17.02,0.83c1.12,0.08,1.46,0.26,1.76,0.62
		c0.14,0.16,0.16,0.3-0.04,0.3c-1.32,0-9.49-0.08-16.22-0.24c-0.06,0-0.08,0.04-0.02,0.06c4.82,1.59,8.67,2.59,12.58,2.57
		c1.98-0.02,3.93-0.04,4.71-0.04c0.84,0,1.18,0.08,1.5,0.48c0.12,0.16,0.1,0.26-0.18,0.28c-1.18,0.1-2.85,0.22-4.83,0.34
		c-0.18,0.02-0.18,0.06-0.02,0.1C41.79,21.41,44.17,21.91,47.32,22.43z M53.16,24.45c0.06,0,0.16-0.02,0.24-0.06
		c4.83-2.41,7.09-4.62,9.93-9.2c1.06-1.76,1.66-2.65,4.23-3.02c4.03-0.58,22.25-1.85,25.85-2.35c1.54-0.22,1.95-0.46,2.68-1.22
		c0.12-0.12,0.12-0.22-0.1-0.2c-0.46,0.04-18.63,0.82-29.54,1.22c-2.68,0.14-3.47,0.08-5.71-0.66c-3.31-1.03-6.31-1.72-7.57-1.72
		c-1.26,0-4.26,0.69-7.57,1.71c-2.23,0.74-3.04,0.8-5.71,0.66C28.98,9.22,10.8,8.45,10.34,8.4c-0.22-0.02-0.22,0.08-0.1,0.2
		c0.72,0.76,1.14,1,2.68,1.22c3.59,0.49,21.81,1.77,25.85,2.35c2.57,0.38,3.18,1.28,4.23,3.02c2.84,4.58,5.09,6.79,9.93,9.2
		C53,24.43,53.1,24.45,53.16,24.45z"/>
	<path class="st0" d="M59.56,13.35c-0.28-0.15-0.58-0.23-0.58-0.49c0-0.13,0.12-0.23,0.36-0.23c0.24,0,0.47,0.09,0.68,0.18
		l0.07-0.34c-0.19-0.07-0.44-0.12-0.7-0.12c-0.58,0-0.91,0.26-0.91,0.62c0,0.35,0.25,0.54,0.6,0.7c0.3,0.14,0.56,0.24,0.56,0.46
		c0,0.17-0.13,0.28-0.39,0.28c-0.24,0-0.5-0.09-0.7-0.18l-0.05,0.39c0.1,0.03,0.47,0.1,0.75,0.1c0.47,0,0.89-0.23,0.89-0.64
		C60.15,13.68,59.86,13.51,59.56,13.35z M50.23,12.7l-0.08-0.29h-1.62l-0.05,0.13l0.1,0.05c0.07,0.03,0.08,0.07,0.08,0.15v1.93h1.56
		v-0.3h-1.06v-0.74h0.91v-0.28h-0.91V12.7L50.23,12.7L50.23,12.7z M56.31,13.35c-0.28-0.15-0.58-0.23-0.58-0.49
		c0-0.13,0.12-0.23,0.36-0.23c0.24,0,0.47,0.09,0.68,0.18l0.07-0.34c-0.19-0.07-0.44-0.12-0.7-0.12c-0.58,0-0.89,0.26-0.89,0.62
		c0,0.35,0.24,0.54,0.58,0.7c0.3,0.14,0.56,0.24,0.56,0.46c0,0.17-0.13,0.28-0.39,0.28c-0.24,0-0.5-0.09-0.7-0.18l-0.05,0.39
		c0.1,0.03,0.47,0.1,0.75,0.1c0.47,0,0.89-0.23,0.89-0.64C56.9,13.68,56.6,13.51,56.31,13.35z M57.24,12.54l0.1,0.05
		c0.07,0.04,0.09,0.07,0.09,0.15v1.93h0.5v-2.26H57.3L57.24,12.54z M54.88,12.7l-0.08-0.29h-1.62l-0.05,0.13l0.1,0.05
		c0.07,0.03,0.08,0.07,0.08,0.15v1.93h1.56v-0.3h-1.06v-0.74h0.91v-0.28h-0.91V12.7L54.88,12.7L54.88,12.7z M52.33,13.94l-1.22-1.54
		h-0.07h-0.41l-0.06,0.13l0.1,0.05c0.07,0.04,0.09,0.07,0.09,0.15v1.93h0.36V13.2l1.17,1.47h0.4V12.4h-0.36V13.94z M47.32,13.6
		l0.22,0.1c0.07,0.03,0.09,0.06,0.09,0.13v0.51c-0.1,0.05-0.22,0.1-0.36,0.09c-0.44-0.02-0.75-0.37-0.75-0.88
		c0-0.52,0.29-0.9,0.77-0.9c0.12,0,0.39,0.03,0.67,0.26l0.1-0.37c-0.33-0.14-0.53-0.18-0.78-0.18c-0.7-0.01-1.29,0.38-1.29,1.21
		c0,0.74,0.52,1.17,1.21,1.17c0.51,0,0.81-0.17,0.89-0.23v-1.03h-0.72L47.32,13.6z"/>
</g>
</svg>
