<?xml version="1.0" encoding="utf-8"?>
<!-- Generator: Adobe Illustrator 27.5.0, SVG Export Plug-In . SVG Version: 6.00 Build 0)  -->
<svg version="1.1" id="레이어_1" xmlns="http://www.w3.org/2000/svg" xmlns:xlink="http://www.w3.org/1999/xlink" x="0px"
	 y="0px" viewBox="0 0 106 32" style="enable-background:new 0 0 106 32;" xml:space="preserve">
<style type="text/css">
	.st0{fill:#9D9D9E;}
	.st1{fill:#221714;}
	.st2{fill:#ED6C00;}
</style>
<g>
	<g>
		<g>
			<g>
				<path class="st0" d="M44,22.18l0.28-0.96c0.29-1.02,0.95-1.38,1.91-1.38c0.33,0,0.84,0.1,1.02,0.22l0.4-1.36l0.75-0.19
					l-1.42,4.93h-0.63l0.01-0.27c-0.45,0.22-0.83,0.34-1.31,0.34C44.03,23.5,43.79,22.89,44,22.18z M47.05,20.6
					c-0.21-0.13-0.58-0.2-0.82-0.2c-0.61,0-1.05,0.17-1.26,0.88l-0.24,0.85c-0.16,0.53-0.02,0.8,0.47,0.8
					c0.37,0,0.87-0.12,1.27-0.32L47.05,20.6z"/>
				<path class="st0" d="M50.83,20.49c-0.43,0.03-0.93,0.13-1.36,0.39l-0.73,2.56h-0.7l1.01-3.51h0.63l-0.03,0.36
					c0.27-0.18,0.78-0.43,1.37-0.43L50.83,20.49z"/>
				<path class="st0" d="M51.44,23.43h-0.7l1.01-3.51h0.7L51.44,23.43z M52.64,19.26h-0.7l0.2-0.71h0.7L52.64,19.26z"/>
				<path class="st0" d="M54.2,23.43h-0.81l-0.3-3.51h0.72l0.11,2.16c0,0.22,0.01,0.45,0.02,0.75h0.01c0.19-0.3,0.32-0.53,0.47-0.75
					l1.35-2.16h0.75L54.2,23.43z"/>
				<path class="st0" d="M56.79,23.43h-0.7l1.01-3.51h0.7L56.79,23.43z M57.99,19.26h-0.7l0.2-0.71h0.7L57.99,19.26z"/>
				<path class="st0" d="M60.97,23.43h-0.7l0.68-2.37c0.12-0.41,0.1-0.64-0.36-0.64c-0.34,0-0.8,0.1-1.25,0.32l-0.77,2.69h-0.7
					l1.01-3.51h0.63l-0.01,0.27c0.42-0.21,0.87-0.35,1.28-0.35c0.85,0,1.1,0.43,0.91,1.08L60.97,23.43z"/>
				<path class="st0" d="M62.2,22.12l0.25-0.88c0.29-1.01,0.94-1.39,1.86-1.39c0.37,0,0.84,0.1,1.07,0.31l0.12-0.24h0.62l-1.07,3.69
					c-0.25,0.87-0.72,1.24-1.97,1.24c-0.32,0-0.73-0.04-0.98-0.1l0.16-0.54c0.25,0.06,0.6,0.09,0.84,0.09
					c0.79,0,1.09-0.16,1.26-0.76l0.1-0.34c-0.38,0.17-0.83,0.27-1.28,0.27C62.23,23.47,61.98,22.86,62.2,22.12z M65.22,20.66
					c-0.14-0.16-0.53-0.26-0.94-0.26c-0.47,0-0.91,0.18-1.12,0.89l-0.23,0.78c-0.17,0.57-0.05,0.83,0.5,0.83
					c0.4,0,0.81-0.1,1.21-0.26L65.22,20.66z"/>
				<path class="st0" d="M71.49,21.87h-2.53l-0.04,0.14c-0.17,0.57-0.09,0.94,0.83,0.94c0.29,0,0.72-0.03,1.12-0.15l-0.16,0.53
					c-0.35,0.13-0.75,0.18-1.07,0.18c-1.24,0-1.7-0.53-1.37-1.64l0.11-0.39c0.34-1.17,1.07-1.62,2-1.62c1.01,0,1.55,0.48,1.19,1.73
					L71.49,21.87z M70.95,21.36l0.01-0.04c0.14-0.52,0.03-0.94-0.66-0.94c-0.65,0-1.03,0.41-1.18,0.94l-0.01,0.04H70.95z"/>
				<path class="st0" d="M77,23.43h-0.7l0.69-2.41c0.12-0.41,0.05-0.61-0.35-0.61c-0.28,0-0.65,0.11-1.08,0.32l-0.03,0.11
					l-0.74,2.58h-0.7l0.69-2.41c0.12-0.41,0.05-0.61-0.36-0.61c-0.28,0-0.63,0.1-1.07,0.32l-0.77,2.69h-0.7l1.01-3.51h0.63
					l-0.01,0.27c0.38-0.2,0.82-0.35,1.18-0.35c0.49,0,0.77,0.14,0.86,0.41c0.49-0.25,1.01-0.41,1.34-0.41c0.8,0,1.03,0.36,0.84,1.01
					L77,23.43z"/>
				<path class="st0" d="M81.61,21.92c-0.29,1.02-0.99,1.58-2.05,1.58c-1.05,0-1.56-0.6-1.26-1.63l0.13-0.45
					c0.29-1.02,0.99-1.58,2.05-1.58c1.06,0,1.56,0.6,1.27,1.63L81.61,21.92z M81.05,21.45c0.22-0.76-0.07-1.05-0.66-1.05
					c-0.59,0-1.04,0.29-1.26,1.05L79,21.89c-0.22,0.76,0.08,1.05,0.65,1.05c0.6,0,1.05-0.29,1.26-1.05L81.05,21.45z"/>
				<path class="st0" d="M84.91,20.47h-1l-0.57,1.98c-0.09,0.33-0.06,0.47,0.24,0.47c0.22,0,0.47-0.03,0.66-0.1l-0.16,0.53
					c-0.2,0.11-0.53,0.15-0.75,0.15c-0.62,0-0.9-0.32-0.74-0.88l0.61-2.14h-0.62l0.17-0.55h0.62l0.21-0.73L84.33,19l-0.26,0.92h1
					L84.91,20.47z"/>
				<path class="st0" d="M85.57,23.43h-0.7l1.01-3.51h0.7L85.57,23.43z M86.77,19.26h-0.7l0.2-0.71h0.7L86.77,19.26z"/>
				<path class="st0" d="M90.24,21.92c-0.29,1.02-0.99,1.58-2.05,1.58c-1.05,0-1.56-0.6-1.26-1.63l0.13-0.45
					c0.29-1.02,0.99-1.58,2.05-1.58c1.06,0,1.56,0.6,1.27,1.63L90.24,21.92z M89.67,21.45c0.22-0.76-0.07-1.05-0.66-1.05
					c-0.59,0-1.04,0.29-1.26,1.05l-0.13,0.45c-0.22,0.76,0.08,1.05,0.65,1.05c0.6,0,1.05-0.29,1.26-1.05L89.67,21.45z"/>
				<path class="st0" d="M93.78,23.43h-0.7l0.68-2.37c0.12-0.41,0.1-0.64-0.36-0.64c-0.34,0-0.8,0.1-1.25,0.32l-0.77,2.69h-0.7
					l1.01-3.51h0.63l-0.01,0.27c0.42-0.21,0.87-0.35,1.28-0.35c0.85,0,1.1,0.43,0.91,1.08L93.78,23.43z"/>
			</g>
		</g>
		<path class="st1" d="M92.77,12.64l1.78,4.2h-3l-1.61-4.37l-1.23,4.37h-2.88l2.52-8.75h2.88l-1.11,3.8c0,0,1.77-0.93,3.16-3.8h3.05
			C94.86,11.22,92.77,12.64,92.77,12.64z"/>
		<path class="st1" d="M56.93,10.59l-1.76,6.24h-2.88l1.59-5.66c0.13-0.49,0.22-0.88,0.03-1.06c-0.17-0.16-0.42-0.18-0.73-0.18
			l-1.49,0.04l-1.97,6.86h-2.88l2.51-8.75c0.34-0.02,2.9-0.14,5.45-0.2c0.98-0.02,1.65,0.19,2,0.65
			C57.15,8.99,57.19,9.68,56.93,10.59z"/>
		<path class="st1" d="M63.79,12.64l1.78,4.2h-3l-1.61-4.37l-1.23,4.37h-2.88l2.52-8.75h2.88l-1.11,3.8c0,0,1.77-0.93,3.16-3.8h3.05
			C65.87,11.22,63.79,12.64,63.79,12.64z"/>
		<path class="st1" d="M75.64,8.95c-0.54-0.71-1.59-1.07-3.13-1.07c-2.99,0-4.89,1.33-5.64,3.96l-0.37,1.28
			c-0.36,1.24-0.29,2.2,0.21,2.85c0.54,0.71,1.59,1.07,3.13,1.07c2.99,0,4.89-1.33,5.64-3.96l0.37-1.28
			C76.21,10.56,76.14,9.6,75.64,8.95z M72.93,11.95l-0.3,1.06c-0.4,1.39-1.05,1.99-2.16,1.99c-0.5,0-0.84-0.12-1.02-0.37
			c-0.24-0.32-0.25-0.85-0.02-1.65l0.3-1.06c0.4-1.39,1.05-1.99,2.16-1.99c0.5,0,0.84,0.12,1.02,0.37
			C73.16,10.62,73.16,11.14,72.93,11.95z"/>
		<path class="st1" d="M85.76,8.95c-0.54-0.71-1.59-1.07-3.13-1.07c-2.99,0-4.89,1.33-5.64,3.96l-0.37,1.28
			c-0.36,1.24-0.29,2.2,0.21,2.85c0.54,0.71,1.59,1.07,3.14,1.07c2.99,0,4.89-1.33,5.64-3.96l0.37-1.28
			C86.33,10.56,86.26,9.6,85.76,8.95z M83.05,11.95l-0.3,1.06c-0.4,1.39-1.05,1.99-2.16,1.99c-0.5,0-0.84-0.12-1.02-0.37
			c-0.24-0.32-0.25-0.85-0.02-1.65l0.3-1.06c0.4-1.39,1.05-1.99,2.16-1.99c0.5,0,0.84,0.12,1.02,0.37
			C83.27,10.62,83.28,11.14,83.05,11.95z"/>
		<g>
			<path class="st1" d="M46.92,9.04c-0.22-0.41-0.63-0.7-1.24-0.89c-0.47-0.14-1.07-0.23-1.78-0.25c-0.03,0-2.58-0.04-4.12,0.26
				l-0.49,1.74c1.55-0.18,3.02-0.23,3.66-0.21c0.69,0.02,1.02,0.11,1.17,0.32c0.13,0.18,0.14,0.45,0,0.92l-0.09,0.34h-1.09
				c-3.05,0-4.85,0.39-5.41,2.44c-0.21,0.79-0.11,1.61,0.33,2.2c0.48,0.63,1.13,0.93,2.24,0.93h5.15l1.66-5.72
				C47.18,10.21,47.18,9.53,46.92,9.04z M42.93,15.05l-1.4,0.04c-0.35,0-0.68,0.02-0.94-0.26c-0.17-0.19-0.29-0.49-0.23-0.81
				c0.19-0.89,1.21-1.02,2.05-1.02h1.12L42.93,15.05z"/>
		</g>
		<polygon class="st1" points="35.12,8.09 34.17,11.39 31.6,11.39 32.54,8.09 29.64,8.09 27.13,16.84 30.03,16.84 31.02,13.39 
			33.61,13.39 32.61,16.84 35.51,16.84 38.02,8.09 		"/>
		<path class="st2" d="M25.44,6.85c-0.32,3.07-2.19,5.69-4.82,7.09c-0.07,0.04-0.14-0.06-0.08-0.11c2.04-1.69,3.37-4.18,3.5-6.97
			h-2.58c-0.32,2.38-1.82,4.39-3.9,5.44c-0.07,0.04-0.14-0.06-0.08-0.11c1.5-1.33,2.48-3.21,2.61-5.32h-2.59
			c-0.18,1.08-0.74,2.01-1.45,2.79c-1.75,1.91-4.57,2.13-5.94,2.02c0,0-0.06-0.01-0.08,0.04c-0.02,0.05,0.04,0.09,0.04,0.09
			c2.28,1.28,4.09,2.49,7.39,4.92c0.81,0.6,1.58,0.77,2.38,0.58c5.15-1.21,8.14-6.53,8.18-10.44H25.44z"/>
	</g>
</g>
</svg>
