<?xml version="1.0" encoding="utf-8"?>
<!-- Generator: Adobe Illustrator 27.5.0, SVG Export Plug-In . SVG Version: 6.00 Build 0)  -->
<svg version="1.1" id="레이어_1" xmlns="http://www.w3.org/2000/svg" xmlns:xlink="http://www.w3.org/1999/xlink" x="0px"
	 y="0px" viewBox="0 0 106 32" style="enable-background:new 0 0 106 32;" xml:space="preserve">
<style type="text/css">
	.st0{fill:#002C5F;}
	.st1{fill:#E63312;}
	.st2{fill:#FFFFFF;}
</style>
<g>
	<polygon class="st0" points="27.91,12.21 27.91,14.88 24.88,14.88 24.88,12.21 23.22,12.21 23.22,19.21 24.88,19.21 24.88,16.39 
		27.91,16.39 27.91,19.21 29.58,19.21 29.58,12.21 29.49,12.21 	"/>
	<polygon class="st0" points="35.69,12.21 33.94,14.98 32.2,12.21 30.23,12.21 33.11,16.79 33.11,19.21 34.78,19.21 34.78,16.79 
		37.66,12.21 37.5,12.21 	"/>
	<g>
		<path class="st0" d="M43.02,12.21v5.13c0,0.2-0.15,0.35-0.35,0.35h-2.67v-5.49h-1.67v7h4.93c0.44,0,0.79-0.13,1.05-0.39
			c0.26-0.26,0.38-0.61,0.38-1.05v-5.57H44.6H43.02z"/>
		<path class="st0" d="M51.16,12.21h-4.93v7h1.67v-5.49h2.67c0.21,0,0.35,0.17,0.35,0.35v5.14h1.66v-5.57
			c0-0.44-0.13-0.79-0.38-1.05C51.94,12.34,51.59,12.21,51.16,12.21"/>
		<path class="st0" d="M59.06,12.21h-4.93v7h4.93c0.44,0,0.79-0.13,1.05-0.39c0.26-0.26,0.39-0.61,0.39-1.05v-4.14
			c0-0.44-0.13-0.79-0.39-1.05C59.85,12.34,59.49,12.21,59.06,12.21 M58.82,14.09v3.25c0,0.19-0.14,0.36-0.36,0.36H55.8v-3.97h2.66
			C58.68,13.72,58.82,13.88,58.82,14.09"/>
		<path class="st0" d="M63.39,12.21c-0.44,0-0.79,0.13-1.05,0.39c-0.26,0.26-0.39,0.61-0.39,1.05v5.57h1.66v-2.17h3.03v2.17h1.66v-7
			H63.39z M66.65,13.72v1.8h-3.03v-1.45c0-0.17,0.13-0.36,0.36-0.36H66.65z"/>
		<rect x="69.94" y="12.21" class="st0" width="1.67" height="7"/>
		<path class="st0" d="M10.19,20.59c5.26,0,9.53-2.18,9.53-4.88c0-2.69-4.27-4.88-9.53-4.88c-5.26,0-9.53,2.18-9.53,4.88
			C0.66,18.4,4.92,20.59,10.19,20.59 M11.98,18.19c-0.16,0.37-0.43,1.16-1.06,1.47c-0.19,0.09-0.42,0.14-0.64,0.15
			c-0.05,0-0.08,0-0.09,0c-1.76,0-3.4-0.24-4.77-0.66c-0.01,0-0.04-0.02-0.05-0.02c-0.13-0.04-0.19-0.1-0.19-0.17
			c0-0.06,0.03-0.11,0.08-0.16c0.02-0.02,0.05-0.04,0.09-0.08c0.32-0.26,1.27-0.95,3.06-1.64c0.63-0.24,1.42-0.54,2.24-0.71
			C11.13,16.27,12.93,15.99,11.98,18.19 M16.79,13.28c0.03-0.06,0.08-0.11,0.16-0.11c0.04,0,0.11,0.01,0.2,0.06
			c1.12,0.69,1.78,1.55,1.78,2.48c0,1.68-2.16,3.13-5.26,3.76c-0.2,0.04-0.33,0.04-0.38-0.01c-0.03-0.03-0.04-0.09,0-0.15
			c0.02-0.03,0.04-0.07,0.08-0.11c1.68-1.99,2.97-4.91,3.33-5.76C16.74,13.37,16.77,13.31,16.79,13.28 M8.42,13.21
			c0.16-0.37,0.43-1.15,1.06-1.47c0.19-0.09,0.43-0.14,0.64-0.15c0.05,0,0.08,0,0.09,0c1.76,0,3.4,0.24,4.77,0.66
			c0.01,0,0.04,0.02,0.05,0.02c0.13,0.04,0.19,0.1,0.19,0.17c0,0.06-0.03,0.11-0.08,0.16c-0.02,0.02-0.05,0.04-0.09,0.08
			c-0.32,0.26-1.27,0.95-3.06,1.64c-0.63,0.24-1.42,0.54-2.24,0.71C9.27,15.14,7.47,15.42,8.42,13.21 M6.69,11.95
			c0.2-0.04,0.33-0.04,0.38,0.01c0.03,0.03,0.04,0.08,0,0.15c-0.02,0.04-0.04,0.07-0.08,0.11c-1.68,1.99-2.97,4.92-3.33,5.76
			c-0.03,0.06-0.05,0.12-0.08,0.15c-0.03,0.06-0.08,0.11-0.16,0.11c-0.05,0-0.11-0.01-0.2-0.06c-1.12-0.69-1.78-1.55-1.78-2.48
			C1.44,14.02,3.6,12.58,6.69,11.95"/>
	</g>
	<g>
		<path class="st1" d="M97.67,12.16l-1.56,0.01l-2.01,4.27c1.25,0.74,1.77-0.44,1.91-0.71C96.23,15.31,97.67,12.16,97.67,12.16"/>
		<path class="st2" d="M97.4,20.71c-1.79,0-3.26-0.46-4.37-1.38c-0.54-0.45-1-0.88-1.41-1.26c-0.99-0.94-1.72-1.62-2.82-1.72
			l-1.96,4.23h-4.46l3.94-8.36l0.05,0c0.28-0.02,0.55-0.04,0.81-0.04c3.2,0,4.66,1.81,5.62,3c0.17,0.21,0.32,0.4,0.47,0.56
			c0.56,0.61,1.1,0.93,1.58,0.93c0.45,0,0.83-0.29,1.1-0.84c0.32-0.66,1.44-3.08,1.71-3.67h-0.53l0.52-1.11h5.12l-4.53,9.63l-0.05,0
			C97.92,20.7,97.65,20.71,97.4,20.71"/>
		<path d="M102.67,12.09l0.53-1.15l-5.59,0.02l-0.52,1.11h-1.04l-1.98,4.24c-0.23-0.15-0.47-0.36-0.72-0.63
			c-0.14-0.16-0.3-0.35-0.47-0.56c-0.98-1.21-2.44-3.03-5.69-3.03c-0.26,0-0.93,0.04-0.93,0.04l-4.11,8.72h4.88l1.78-3.89
			c0.6,0.04,1.12,0.11,2.68,1.49c1.5,1.33,2.3,2.42,6.67,2.42c3,0,3.37,0.01,3.37,0.01l4.12-8.78L102.67,12.09z M96.17,12.25l1.36,0
			c-0.35,0.75-1.35,2.92-1.65,3.54c-0.17,0.36-0.49,0.79-1.02,0.79c-0.2,0-0.42-0.06-0.64-0.18L96.17,12.25z M98.18,20.61
			c-0.24,0-0.57-0.01-0.78-0.02c-1.25-0.04-2.93-0.19-4.31-1.33c-1.87-1.54-2.7-2.9-4.34-3.01l-1.96,4.23h-4.26l3.86-8.18
			c0.28-0.02,0.55-0.03,0.81-0.03c3.71,0,5.02,2.43,6.02,3.52c0.59,0.65,1.16,0.96,1.65,0.96c0.49,0,0.9-0.31,1.18-0.89
			c0.37-0.76,1.77-3.8,1.77-3.8l-0.52,0l0.44-0.93h4.92L98.18,20.61z"/>
	</g>
</g>
</svg>
