<?xml version="1.0" encoding="utf-8"?>
<!-- Generator: Adobe Illustrator 27.5.0, SVG Export Plug-In . SVG Version: 6.00 Build 0)  -->
<svg version="1.1" id="레이어_1" xmlns="http://www.w3.org/2000/svg" xmlns:xlink="http://www.w3.org/1999/xlink" x="0px"
	 y="0px" viewBox="0 0 106 32" style="enable-background:new 0 0 106 32;" xml:space="preserve">
<style type="text/css">
	.st0{fill:#EF5423;}
</style>
<g id="Layer_1">
	<path class="st0" d="M4.4,23.23H0.66V8.53H4.4V23.23z M9.93,23.23H6.35V8.53h3.27l5.74,8.96L15.2,8.53h3.58v14.7h-3.32l-5.69-8.96
		L9.93,23.23z M24.58,23.23h-3.58V8.53h3.27L30,17.49l-0.16-8.96h3.58v14.7h-3.27l-5.74-8.96L24.58,23.23z M42.75,23.55
		c-4.53,0-7.8-3.27-7.8-7.69s3.27-7.64,7.8-7.64s7.8,3.27,7.8,7.69S47.23,23.55,42.75,23.55z M42.75,11.59
		c-2.53,0-4.06,1.9-4.06,4.32s1.53,4.32,4.06,4.32c2.53,0,4-1.9,4-4.32S45.28,11.59,42.75,11.59z M59.45,20.17
		c1.69,0,2.9-0.9,3.53-2.48h3.85c-0.79,3.69-3.9,5.85-7.38,5.85c-4.37,0-7.69-3-7.69-7.69s3.27-7.69,7.69-7.69
		c3.95,0,6.74,2.58,7.38,5.9h-3.85c-0.53-1.58-1.9-2.53-3.53-2.53c-2.37,0-3.95,1.69-3.95,4.32S57.14,20.17,59.45,20.17z
		 M76.47,23.23H68.3V8.53h8.17v3.32h-4.53v2.27h4.43v3.32h-4.43v2.53h4.53V23.23z M86.22,8.53h-3l-5.85,14.7h4.11l0.68-2.16h5.16
		l0.68,2.16h4.06L86.22,8.53z M84.69,13.11l1.63,5.06H83L84.69,13.11z M96.81,23.23h-3.58V8.53h3.27l5.74,8.96l-0.21-8.96h3.64v14.7
		h-3.27l-5.74-8.96L96.81,23.23z"/>
</g>
</svg>
