<?xml version="1.0" encoding="utf-8"?>
<!-- Generator: Adobe Illustrator 27.5.0, SVG Export Plug-In . SVG Version: 6.00 Build 0)  -->
<svg version="1.1" id="레이어_1" xmlns="http://www.w3.org/2000/svg" xmlns:xlink="http://www.w3.org/1999/xlink" x="0px"
	 y="0px" viewBox="0 0 106 32" style="enable-background:new 0 0 106 32;" xml:space="preserve">
<style type="text/css">
	.st0{fill:#164B90;}
	.st1{fill:none;}
	.st2{fill:#FFFFFF;}
	.st3{fill:#293D90;}
	.st4{fill:#D72626;}
</style>
<g>
	<polygon class="st0" points="36.2,12.84 31.93,12.84 28.82,19.63 33.09,19.63 	"/>
	<polygon class="st0" points="37.32,10.4 33.05,10.4 32.3,12.03 36.58,12.03 	"/>
	<polygon class="st0" points="78.93,12.84 74.66,12.84 71.54,19.63 75.82,19.63 	"/>
	<polygon class="st0" points="80.05,10.4 75.78,10.4 75.03,12.03 79.3,12.03 	"/>
	<path class="st0" d="M40.08,17.18h0.27l0.75,2.44h4.27l-0.75-2.44h-0.27c1.18,0,2.58-0.97,3.13-2.17l1.12-2.44
		c0.55-1.2,0.04-2.17-1.14-2.17h-8.55l-4.23,9.23h4.27L40.08,17.18z M42.82,11.21h2.14l-2.37,5.16h-2.14L42.82,11.21z"/>
	<path class="st0" d="M84.43,13.65h2.14l-2.74,5.97h4.27l2.12-4.62c0.55-1.2,0.04-2.17-1.14-2.17h-8.55l-3.11,6.79h4.27L84.43,13.65
		z"/>
	<path class="st0" d="M58.63,12.84h-7.48l-0.37,0.81h5.34l-0.37,0.81h-4.27c-0.67,0-1.42,0.32-2.04,0.81
		c-0.46,0.37-0.86,0.84-1.09,1.36l-0.37,0.81c-0.55,1.2-0.04,2.17,1.14,2.17h8.55l2.12-4.62C60.32,13.81,59.81,12.84,58.63,12.84z
		 M53.76,18.81h-2.14l1.62-3.53h2.14L53.76,18.81z"/>
	<path class="st0" d="M61.4,19.63h6.41c1.18,0,2.58-0.97,3.13-2.17l0.12-0.27h-4.27l-0.75,1.63h-2.14l2.37-5.16h2.14l-0.75,1.63
		h4.27l0.12-0.27c0.55-1.2,0.04-2.17-1.14-2.17h-6.41c-0.67,0-1.42,0.32-2.04,0.81c-0.46,0.37-0.86,0.84-1.09,1.36l-1.12,2.44
		C59.71,18.66,60.22,19.63,61.4,19.63z"/>
	<path class="st0" d="M94.95,12.84L94.95,12.84C94.95,12.84,94.95,12.84,94.95,12.84c-0.68,0-1.42,0.32-2.04,0.81
		c-0.46,0.37-0.86,0.84-1.09,1.36l-1.12,2.44c-0.24,0.51-0.28,0.99-0.15,1.36c0.16,0.5,0.62,0.81,1.29,0.81h4.27l-0.37,0.81H28.4
		l-0.37,0.81H97.5c0.67,0,1.42-0.32,2.04-0.81c0.46-0.37,0.86-0.84,1.09-1.36l2.86-6.24H94.95z M96.49,18.81h-2.14l2.37-5.16h2.14
		L96.49,18.81z"/>
	<path class="st1" d="M25.26,10.87c0.07-0.09,0.16-0.19,0.25-0.29C25.42,10.68,25.33,10.78,25.26,10.87z"/>
	<path class="st1" d="M25.66,9.46c-0.03-0.03-0.05-0.06-0.08-0.09C25.61,9.4,25.64,9.43,25.66,9.46z"/>
	<path class="st2" d="M2.73,7.71C2.49,7.7,2.36,7.85,2.17,8.08C1.85,8.49,1.94,8.42,2.03,8.69c0.12,0.32-0.01,0.55,0.28,0.68
		c0.15,0.06,0.27-0.11,0.32-0.32c0.09,0.26,0.15,0.41,0.25,0.68c0.1,0.13,0.26,0.34,0.42,0.28c0.25,0,0.32,0.17,0.36,0.35
		c-0.07,0.31,0.01,0.28,0.17,0.48c0.07,0.12,0.14,0.29,0.2,0.33c0.03,0.03,0.11,0.1,0.14,0.14c0.2,0.24,0.34,0.51,0.54,0.75
		c0.37,0.28,0.58,0.49,0.7,0.73c0.59,0.77,0.76,1.16,1.23,1.52c0.12,0.18,0.34,0.3,0.37,0.53c0.05,0.43,0.78,1.07,1.2,1.47
		c0.63,0.62,1.25,1.12,1.99,1.6c0.69,1.9,1.27,4.37,1.09,6.43c-0.1,0.4-0.17,0.75-0.26,1.13h6.78c-0.03-0.16-0.06-0.33-0.1-0.49
		c-0.02-0.12-0.07-0.23-0.07-0.34c0-0.08,0.07-0.15,0.08-0.23c0.14-2.12,0.76-3.53,1.16-5.36c0.06-0.31,0.14-0.59,0.12-0.71
		c0.48-0.33,0.94-0.52,1.25-1.1c0.7-0.51,1.16-1.02,1.24-1.55c0.23-0.25,0.79-0.2,0.79-0.71c0.25-0.25,0.39-0.45,0.43-0.73
		c0.34-0.44,0.82-0.93,0.85-1.24c0.47-0.34,0.79-0.59,0.6-0.95c0.27-0.13,0.42-0.41,0.35-0.67c0.2-0.24,0.6-0.27,0.72-0.51
		c0.07-0.09,0.16-0.19,0.25-0.29c0.06-0.07,0.13-0.14,0.18-0.21v-0.4c0-0.01,0-0.02,0-0.03V9.49c-0.01-0.01-0.02-0.02-0.03-0.03
		c-0.03-0.03-0.06-0.06-0.08-0.09c0.02-0.3-0.14-0.43-0.48-0.48c0.03-0.29,0.15-0.62,0.23-0.92c0.14-0.23,0.17-0.4,0.08-0.51
		c-0.19-0.18-0.33,0.01-0.55,0.39c-0.1,0.2-0.23,0.52-0.34,0.72c-0.13,0.17-0.23,0.33-0.34,0.56c-0.21,0.23-0.45,0.62-0.45,0.92
		c-0.11,0.14-0.13,0.23-0.23,0.3c-0.05-0.02-0.13-0.05-0.21,0.05c-0.03,0.13-0.11,0.2-0.11,0.29c-0.23-0.09-0.41,0.12-0.53,0.51
		c-0.08,0.05-0.28,0.11-0.29,0.18c-0.1,0.07-0.13,0.18-0.23,0.24c-0.22,0.03-0.25,0.26-0.39,0.4c-0.13,0.05-0.23,0.21-0.31,0.36
		c-0.16-0.01-0.33,0.21-0.41,0.38c-0.3,0.18-0.41,0.32-0.51,0.57c-0.23,0.02-0.51,0.14-0.64,0.41c-0.24,0.15-0.51,0.41-0.62,0.67
		c-0.25,0.17-0.42,0.42-0.67,0.83c-0.27-0.13-0.57-0.13-0.88,0c-0.19-0.05-0.37-0.08-0.56-0.12c-0.11-0.11-0.12-0.22-0.05-0.32
		c0-0.12,0-0.23,0-0.36c0.08-0.29,0.16-0.58,0.24-0.88c0.22-0.53,0.22-1.02,0.14-1.52c0.03-0.45-0.02-0.87-0.22-1.33
		c-0.51-0.37-1.24-0.67-1.85-0.67c-0.77-0.1-1.3,0-1.82,0.28c-0.28,0.16-0.54,0.37-0.82,0.53c-0.31,0.15-0.57,0.87-0.85,1.3
		c-0.29,0.62-0.06,0.69,0.2,0.56h0.01c-0.51-0.02-0.05-0.47,0.17-0.49c0.73-0.07,1.52-0.05,2.64,0.65c0.35,0.2,0.69,0.38,1.01,0.29
		c0.14,0.17-0.15,0.42-0.49,0.51c-1.62,0.09-3.14,0.1-3.29-0.3c0.06-0.22,0.07-0.46,0.11-0.67c-0.03,0-0.05,0-0.08,0.01
		c0.11,0.06-0.02,0.51-0.05,0.8c-0.21,0.15-0.27,0.38-0.2,0.68c0.08,0.23,0.15,0.46,0.08,0.79c-0.09,0.02-0.19,0.03-0.28,0.05
		c-0.14-0.07-0.26-0.14-0.4-0.2c-0.22-0.05-0.38-0.03-0.52,0.04c-0.21-0.26-0.42-0.27-0.63-0.24c-0.14-0.12-0.27-0.23-0.41-0.35
		c-0.03-0.44-0.25-0.75-0.68-0.79c-0.18-0.14-0.37-0.2-0.56-0.33c0-0.12,0-0.24,0-0.36c-0.07-0.23-0.19-0.44-0.55-0.56
		c-0.29,0.03-0.36-0.25-0.53-0.51c-0.23-0.19-0.44-0.41-0.67-0.59c-0.11-0.16-0.33-0.25-0.44-0.42c-0.15-0.08-0.23-0.21-0.4-0.29
		c-0.06-0.06-0.15-0.27-0.26-0.37C5.63,9.99,5.53,10,5.45,10C5.37,9.88,5.35,9.86,5.27,9.73C5.11,9.61,4.95,9.49,4.79,9.37
		c-0.13-0.16-0.26-0.32-0.4-0.48C4.28,8.81,4.18,8.73,4.07,8.65C3.87,8.24,3.51,7.83,3.34,7.49C3.22,7.32,3.27,7.19,3.15,7.02
		C3.09,6.9,3.03,6.79,2.98,6.68l-0.21-0.4H2.53c-0.04,0.07-0.05,0.2-0.05,0.34c0.05,0.2,0.11,0.4,0.16,0.6
		C2.64,7.4,2.73,7.52,2.73,7.71z M12.09,15.03c0.23,1.06,2.19,0.61,4.22,0.06c-0.85,0.4-1.72,0.82-2.86,0.79
		C12.43,15.87,11.87,15.61,12.09,15.03z"/>
	<path class="st0" d="M25.73,9.89c-0.01,0.02-0.03,0.04-0.04,0.05c0,0.08,0.02,0.13,0.04,0.17V9.89z"/>
	<path class="st3" d="M13.44,15.89c1.14,0.03,2.01-0.4,2.86-0.79c-2.02,0.55-3.99,0.99-4.22-0.06
		C11.87,15.61,12.43,15.87,13.44,15.89z"/>
	<path class="st3" d="M25.66,9.46c0.01,0.01,0.02,0.02,0.03,0.03v0C25.68,9.48,25.67,9.47,25.66,9.46z"/>
	<path class="st3" d="M25.69,10.37v-0.01c-0.06,0.07-0.12,0.14-0.18,0.21C25.57,10.51,25.63,10.44,25.69,10.37z"/>
	<path class="st3" d="M2.98,6.68C3.03,6.79,3.09,6.9,3.15,7.02L2.98,6.68z"/>
	<path class="st0" d="M25.73,6.24H2.71c0.02,0,0.03,0.01,0.05,0.02C2.83,6.4,2.9,6.54,2.98,6.68l0.18,0.34
		c0.12,0.17,0.06,0.31,0.19,0.48c0.17,0.33,0.52,0.75,0.73,1.16c0.11,0.08,0.21,0.16,0.32,0.24c0.14,0.16,0.27,0.32,0.4,0.48
		c0.16,0.12,0.32,0.23,0.49,0.36C5.35,9.86,5.37,9.88,5.45,10c0.07,0,0.18-0.02,0.27,0.06c0.11,0.1,0.2,0.31,0.26,0.37
		c0.16,0.08,0.24,0.21,0.4,0.29c0.11,0.16,0.33,0.25,0.44,0.42c0.23,0.18,0.44,0.4,0.67,0.59c0.17,0.26,0.24,0.54,0.53,0.51
		c0.36,0.12,0.48,0.33,0.55,0.56c0,0.12,0,0.24,0,0.36c0.19,0.14,0.38,0.2,0.56,0.33c0.42,0.04,0.65,0.34,0.68,0.79
		c0.14,0.12,0.27,0.23,0.41,0.35c0.21-0.03,0.42-0.02,0.63,0.24c0.14-0.06,0.31-0.09,0.52-0.04c0.14,0.06,0.26,0.13,0.4,0.2
		c0.09-0.02,0.19-0.03,0.28-0.05c0.07-0.33,0-0.57-0.08-0.79c-0.07-0.3-0.01-0.52,0.2-0.68c0.04-0.3,0.16-0.74,0.05-0.8
		c0.03-0.01,0.05-0.01,0.08-0.01c-0.04,0.21-0.05,0.45-0.11,0.67c0.14,0.4,1.67,0.39,3.29,0.3c0.33-0.08,0.62-0.33,0.49-0.51
		c-0.32,0.09-0.66-0.09-1.01-0.29c-1.13-0.7-1.91-0.72-2.64-0.65c-0.22,0.02-0.69,0.47-0.17,0.49h-0.01
		c-0.26,0.13-0.49,0.06-0.2-0.56c0.28-0.43,0.54-1.15,0.85-1.3c0.28-0.16,0.54-0.37,0.82-0.53c0.52-0.28,1.06-0.38,1.82-0.28
		c0.61,0,1.34,0.3,1.85,0.67c0.2,0.46,0.24,0.88,0.22,1.33c0.08,0.5,0.08,0.98-0.14,1.52c-0.08,0.3-0.16,0.59-0.24,0.88
		c0,0.13,0,0.24,0,0.36c-0.07,0.11-0.06,0.22,0.05,0.32c0.19,0.04,0.37,0.07,0.56,0.12c0.31-0.13,0.6-0.13,0.88,0
		c0.25-0.41,0.42-0.66,0.67-0.83c0.11-0.26,0.38-0.51,0.62-0.67c0.14-0.27,0.42-0.39,0.64-0.41c0.1-0.25,0.21-0.39,0.51-0.57
		c0.07-0.17,0.24-0.39,0.41-0.38c0.08-0.15,0.18-0.32,0.31-0.36c0.14-0.14,0.17-0.37,0.39-0.4c0.1-0.06,0.13-0.17,0.23-0.24
		c0.01-0.07,0.21-0.14,0.29-0.18c0.13-0.4,0.3-0.6,0.53-0.51c0-0.09,0.08-0.16,0.11-0.29c0.08-0.1,0.16-0.07,0.21-0.05
		c0.11-0.06,0.13-0.15,0.23-0.3c0-0.3,0.24-0.69,0.45-0.92c0.11-0.23,0.22-0.39,0.34-0.56c0.11-0.2,0.24-0.52,0.34-0.72
		c0.22-0.38,0.36-0.57,0.55-0.39c0.09,0.12,0.06,0.29-0.08,0.51c-0.08,0.3-0.21,0.63-0.23,0.92c0.34,0.05,0.5,0.18,0.48,0.48
		c0.03,0.03,0.06,0.06,0.08,0.09c0.01,0.01,0.02,0.02,0.03,0.03v0c0.01,0.02,0.03,0.03,0.04,0.05L25.73,6.24z"/>
	<path class="st0" d="M25.69,10.36v0.01c-0.06,0.07-0.12,0.13-0.18,0.2c-0.09,0.1-0.18,0.2-0.25,0.29
		c-0.13,0.23-0.52,0.26-0.72,0.51c0.07,0.26-0.08,0.54-0.35,0.67c0.18,0.36-0.14,0.6-0.6,0.95c-0.03,0.31-0.51,0.79-0.85,1.24
		c-0.05,0.28-0.18,0.48-0.43,0.73c0,0.51-0.55,0.46-0.79,0.71c-0.08,0.53-0.53,1.04-1.24,1.55c-0.32,0.58-0.78,0.78-1.25,1.1
		c0.03,0.13-0.05,0.41-0.12,0.71c-0.4,1.83-1.01,3.24-1.16,5.36c-0.01,0.08-0.08,0.15-0.08,0.23c0,0.12,0.05,0.23,0.07,0.34
		c0.03,0.16,0.07,0.33,0.1,0.49h7.89l0-15.15C25.71,10.33,25.7,10.35,25.69,10.36z"/>
	<path class="st4" d="M10.22,17.91c-0.75-0.48-1.36-0.97-1.99-1.6c-0.42-0.41-1.16-1.04-1.2-1.47C7,14.61,6.77,14.49,6.65,14.31
		c-0.47-0.36-0.64-0.75-1.23-1.52c-0.13-0.24-0.33-0.45-0.7-0.73c-0.2-0.24-0.34-0.51-0.54-0.75c-0.03-0.04-0.11-0.11-0.14-0.14
		c-0.06-0.05-0.13-0.22-0.2-0.33c-0.16-0.2-0.24-0.17-0.17-0.48c-0.05-0.18-0.11-0.35-0.36-0.35c-0.16,0.06-0.32-0.15-0.42-0.28
		c-0.1-0.27-0.16-0.42-0.25-0.68C2.58,9.26,2.47,9.43,2.31,9.37C2.02,9.25,2.15,9.02,2.03,8.69C1.94,8.42,1.85,8.49,2.17,8.08
		C2.36,7.85,2.49,7.7,2.73,7.71c0-0.19-0.09-0.31-0.09-0.5c-0.05-0.2-0.11-0.4-0.16-0.6c0-0.18,0.01-0.33,0.09-0.38H1.16v19.23h9.89
		c0.09-0.38,0.16-0.73,0.26-1.13C11.49,22.28,10.91,19.81,10.22,17.91z"/>
	<path class="st0" d="M103.93,12.51c0-0.06,0.01-0.11,0.02-0.16c0.01-0.05,0.03-0.1,0.06-0.15c0.03-0.05,0.06-0.09,0.09-0.13
		c0.04-0.04,0.08-0.07,0.12-0.1c0.05-0.03,0.09-0.05,0.15-0.07c0.05-0.02,0.11-0.02,0.16-0.03c0.06,0,0.11,0.01,0.16,0.02
		c0.05,0.01,0.1,0.03,0.15,0.06c0.05,0.03,0.09,0.06,0.13,0.09c0.04,0.04,0.07,0.08,0.1,0.12c0.03,0.05,0.05,0.09,0.07,0.15
		c0.02,0.05,0.02,0.11,0.03,0.16c0,0.06,0,0.11-0.02,0.16c-0.01,0.05-0.03,0.1-0.06,0.15c-0.03,0.05-0.06,0.09-0.09,0.13
		c-0.04,0.04-0.08,0.07-0.12,0.1c-0.05,0.03-0.09,0.05-0.15,0.07c-0.05,0.02-0.11,0.02-0.16,0.03c-0.06,0-0.11-0.01-0.16-0.02
		c-0.05-0.01-0.1-0.03-0.15-0.06c-0.05-0.03-0.09-0.06-0.13-0.09c-0.04-0.04-0.07-0.08-0.1-0.12c-0.03-0.04-0.05-0.09-0.07-0.14
		C103.94,12.62,103.93,12.56,103.93,12.51z M104.04,12.51c0,0.07,0.02,0.14,0.04,0.2c0.03,0.06,0.06,0.12,0.11,0.16
		c0.05,0.05,0.1,0.08,0.16,0.11c0.06,0.03,0.13,0.04,0.2,0.04c0.07,0,0.14-0.02,0.2-0.04c0.06-0.03,0.11-0.07,0.16-0.11
		c0.04-0.05,0.08-0.1,0.1-0.17c0.02-0.06,0.04-0.13,0.03-0.2c0-0.05-0.01-0.09-0.02-0.14c-0.01-0.04-0.03-0.09-0.05-0.12
		c-0.02-0.04-0.05-0.07-0.08-0.1c-0.03-0.03-0.07-0.06-0.1-0.08c-0.04-0.02-0.08-0.04-0.12-0.05c-0.04-0.01-0.09-0.02-0.14-0.02
		c-0.05,0-0.09,0.01-0.13,0.02c-0.04,0.01-0.08,0.03-0.12,0.05c-0.04,0.02-0.07,0.05-0.1,0.08c-0.03,0.03-0.05,0.07-0.08,0.11
		c-0.02,0.04-0.04,0.08-0.05,0.13C104.04,12.41,104.04,12.46,104.04,12.51z M104.45,12.6l0.01,0.27l-0.18,0l-0.02-0.75l0.27-0.01
		c0.1,0,0.18,0.01,0.23,0.05c0.05,0.04,0.07,0.09,0.08,0.16c0,0.05-0.01,0.09-0.04,0.13c-0.02,0.04-0.06,0.07-0.12,0.08
		c0.01,0.01,0.02,0.02,0.03,0.03c0.01,0.01,0.02,0.02,0.03,0.04l0.16,0.25l-0.17,0c-0.03,0-0.04-0.01-0.05-0.03l-0.12-0.22
		c-0.01-0.01-0.01-0.01-0.02-0.02c-0.01,0-0.02-0.01-0.03-0.01L104.45,12.6z M104.45,12.47l0.07,0c0.03,0,0.05,0,0.07-0.01
		c0.02-0.01,0.03-0.01,0.04-0.02c0.01-0.01,0.02-0.02,0.02-0.04c0-0.01,0.01-0.03,0-0.05c0-0.02,0-0.03-0.01-0.05
		c0-0.01-0.01-0.02-0.02-0.03c-0.01-0.01-0.02-0.01-0.04-0.02c-0.02,0-0.04-0.01-0.06,0l-0.09,0L104.45,12.47z"/>
</g>
</svg>
