<?xml version="1.0" encoding="utf-8"?>
<!-- Generator: Adobe Illustrator 27.5.0, SVG Export Plug-In . SVG Version: 6.00 Build 0)  -->
<svg version="1.1" id="레이어_1" xmlns="http://www.w3.org/2000/svg" xmlns:xlink="http://www.w3.org/1999/xlink" x="0px"
	 y="0px" viewBox="0 0 106 32" style="enable-background:new 0 0 106 32;" xml:space="preserve">
<style type="text/css">
	.st0{fill:url(#SVGID_1_);}
	.st1{fill:#FFFFFF;}
	.st2{fill:url(#SVGID_00000124127861174095299440000007293126936751519935_);}
	.st3{fill:#00244A;}
	.st4{fill:#F7B52C;}
</style>
<g>
	<linearGradient id="SVGID_1_" gradientUnits="userSpaceOnUse" x1="87.517" y1="15.0681" x2="13.604" y2="16.7576">
		<stop  offset="0.2167" style="stop-color:#00043A"/>
		<stop  offset="0.4946" style="stop-color:#00215B"/>
		<stop  offset="1" style="stop-color:#00043A"/>
	</linearGradient>
	<rect x="20.49" y="0.85" class="st0" width="65.33" height="30"/>
	<polygon class="st1" points="21.09,23.66 50.41,23.66 55.11,1.48 21.09,1.48 	"/>
	
		<linearGradient id="SVGID_00000121251506518398524030000002113495581886609046_" gradientUnits="userSpaceOnUse" x1="50.9687" y1="12.5702" x2="85.235" y2="12.5702">
		<stop  offset="0" style="stop-color:#001B53"/>
		<stop  offset="0.5114" style="stop-color:#00387D"/>
		<stop  offset="1" style="stop-color:#001B53"/>
	</linearGradient>
	<polygon style="fill:url(#SVGID_00000121251506518398524030000002113495581886609046_);" points="55.73,1.48 50.97,23.66 
		85.24,23.66 85.24,1.48 	"/>
	<path class="st1" d="M66.42,18.55c1.03,0,2-0.26,2.84-0.71c0.84,0.44,1.79,0.7,2.8,0.7c3.31,0,5.98-2.67,5.98-5.98
		c0-3.3-2.67-5.98-5.98-5.98c-1.02,0-1.98,0.25-2.82,0.7c-0.84-0.45-1.8-0.71-2.82-0.71c-3.31,0-5.99,2.68-5.99,5.99
		C60.43,15.88,63.11,18.55,66.42,18.55z M70.3,7.22l0.17,0.44l0.65-0.17l-0.07-0.45c0.23-0.04,0.46-0.07,0.69-0.08l0.05,0.46l0.68,0
		l0.04-0.45c0.23,0.02,0.46,0.05,0.69,0.1l-0.07,0.45l0.66,0.17l0.16-0.42c0.22,0.08,0.43,0.17,0.64,0.27L74.4,7.96l0.59,0.33
		l0.26-0.36c0.19,0.13,0.37,0.28,0.55,0.43L75.5,8.71l0.48,0.47l0.34-0.28c0.15,0.18,0.29,0.36,0.42,0.56l-0.36,0.26l0.34,0.58
		l0.4-0.18c0.1,0.21,0.19,0.42,0.26,0.64l-0.41,0.16l0.18,0.65l0.43-0.07c0.04,0.22,0.07,0.45,0.09,0.69l-0.43,0.05l0.01,0.68
		l0.43,0.04c-0.02,0.22-0.04,0.44-0.09,0.65l-0.44-0.07l-0.16,0.66l0.41,0.15c-0.07,0.22-0.16,0.44-0.26,0.64l-0.41-0.17l-0.33,0.59
		l0.36,0.25c-0.13,0.19-0.27,0.38-0.42,0.56l-0.35-0.28l-0.47,0.49l0.28,0.33c-0.17,0.15-0.36,0.3-0.55,0.43l-0.27-0.36l-0.58,0.35
		l0.19,0.4c-0.21,0.1-0.42,0.2-0.64,0.27l-0.17-0.42l-0.65,0.19l0.08,0.44c-0.23,0.05-0.45,0.08-0.69,0.1l-0.06-0.45l-0.68,0.02
		l-0.03,0.45c-0.24-0.01-0.47-0.04-0.69-0.08l0.06-0.46l-0.66-0.16l-0.15,0.43c-0.24-0.08-0.48-0.17-0.7-0.28
		c0.44-0.28,0.85-0.62,1.21-1c0.42,0.13,0.86,0.2,1.3,0.2c1.04,0,2.06-0.4,2.84-1.07h1.38l-0.38-1.33c0.28-0.58,0.43-1.21,0.43-1.87
		c0-1.14-0.44-2.21-1.25-3.02c-0.81-0.81-1.88-1.25-3.02-1.25c-0.44,0-0.88,0.07-1.3,0.2c-0.36-0.38-0.76-0.72-1.21-1
		C69.83,7.39,70.06,7.3,70.3,7.22z M69.27,9.62c0.46-0.22,0.91-0.51,1.31-0.84c0.41,0.44,0.74,0.96,0.99,1.51l-0.67,2.17h-1.56
		v-0.87h-0.27c-0.02-0.15-0.05-0.3-0.08-0.46c0.28-0.2,0.46-0.53,0.46-0.91C69.45,10,69.38,9.79,69.27,9.62z M72.36,14.98h1.48
		l0.18,0.78h0.6c-0.69,0.53-1.58,0.88-2.51,0.88c-0.4,0-0.78-0.06-1.16-0.17c0.19-0.21,0.39-0.47,0.54-0.71h0.67L72.36,14.98z
		 M72.72,13.56l0.41-1.68l0.39,1.68H72.72z M74.53,9.36h-2.67l-0.13,0.43C71.51,9.38,71.25,9,70.95,8.66
		c0.38-0.11,0.77-0.17,1.16-0.17c1.09,0,2.11,0.42,2.88,1.19c0.77,0.77,1.19,1.79,1.19,2.88c0,0.56-0.11,1.09-0.32,1.58L74.53,9.36z
		 M69.33,14.65v-1.99h1.5l-0.97,3.1h1.18c-0.14,0.2-0.31,0.41-0.47,0.59c-0.39-0.32-0.8-0.59-1.24-0.81V14.65z M70.44,8.64
		c-0.4,0.33-0.84,0.6-1.3,0.82c-0.2-0.22-0.49-0.35-0.82-0.35l-0.08,0c-0.43-0.81-1.01-1.55-1.72-2.17
		C68.06,6.97,69.44,7.61,70.44,8.64z M66.53,7.21c0.61,0.56,1.12,1.22,1.51,1.94c-0.41,0.11-0.73,0.45-0.81,0.88
		c-0.23,0.03-0.46,0.05-0.7,0.05V7.21z M66.53,10.27c0.23,0,0.46-0.02,0.68-0.04c0,0.62,0.5,1.12,1.12,1.12
		c0.17,0,0.33-0.04,0.48-0.11c0.02,0.12,0.04,0.23,0.06,0.35h-1.58v0.87h-0.77V10.27z M66.53,12.66h0.77v1.99v0.27
		c-0.25-0.04-0.51-0.05-0.77-0.06V12.66z M66.53,15.06c0.26,0,0.51,0.02,0.77,0.06v0.65l0,0h0.87c-0.4,0.79-0.97,1.54-1.63,2.16
		V15.06z M68.38,15.77h0.06h0.9c0.39,0.2,0.77,0.45,1.11,0.73c-1,1.02-2.38,1.66-3.92,1.69C67.29,17.52,67.93,16.66,68.38,15.77z
		 M62.39,16.5c0.33-0.27,0.71-0.54,1.08-0.73h0.63V15.5c0.07-0.03,0.14-0.05,0.21-0.08c0.44,1.03,1.12,1.98,1.97,2.78
		C64.76,18.16,63.39,17.52,62.39,16.5z M64.11,15.28v-0.42c0.04,0.12,0.09,0.25,0.13,0.37L64.11,15.28z M66.33,17.93
		c-0.79-0.73-1.41-1.61-1.82-2.57c0.59-0.19,1.2-0.28,1.82-0.29V17.93z M66.33,14.86c-0.65,0.01-1.29,0.11-1.9,0.31
		c-0.13-0.33-0.24-0.67-0.32-1.01V13.5h1.77v-0.84h0.45V14.86z M66.33,12.47h-0.45v-0.6h-1.77v-0.66v-0.18h1.99v-0.77
		c0.07,0,0.15,0.01,0.23,0.01V12.47z M66.33,10.07c-0.07,0-0.15,0-0.23-0.01V9.3h-1.37c0.4-0.77,0.94-1.48,1.59-2.09V10.07z
		 M66.33,6.94c-0.76,0.67-1.37,1.47-1.82,2.36h-1.13c-0.35-0.19-0.68-0.41-0.99-0.66C63.4,7.61,64.79,6.97,66.33,6.94z M62.26,8.78
		c0.23,0.19,0.47,0.37,0.73,0.52h-1.13v1.91v1.26h-1.07C60.82,11.05,61.37,9.75,62.26,8.78z M61.86,12.66v3.1h1.24
		c-0.28,0.16-0.59,0.38-0.84,0.59c-0.89-0.98-1.44-2.27-1.46-3.69H61.86z"/>
	<path class="st1" d="M36.74,25.32L36.74,25.32l-0.23,1.27h-0.25l0.39-2.01l0.66,1.52l0.66-1.52l0.39,2.01h-0.25l-0.22-1.27H37.9
		l-0.58,1.31L36.74,25.32z"/>
	<path class="st1" d="M38.85,24.66h1.04v0.22h-0.79v0.54h0.77v0.22h-0.77v0.73h0.79v0.22h-1.04V24.66z"/>
	<path class="st1" d="M40.76,25.32L40.76,25.32l-0.23,1.27h-0.25l0.39-2.01l0.66,1.52L42,24.58l0.39,2.01h-0.25l-0.22-1.27h-0.01
		l-0.58,1.31L40.76,25.32z"/>
	<path class="st1" d="M42.84,24.66h0.24c0.36,0,0.71,0.09,0.71,0.53c0,0.14-0.08,0.3-0.21,0.37v0.01c0.23,0.04,0.39,0.26,0.39,0.49
		c0,0.39-0.33,0.54-0.67,0.54h-0.45V24.66z M43.08,25.52h0.06c0.23,0,0.41-0.05,0.41-0.32c0-0.27-0.18-0.32-0.41-0.32h-0.07V25.52z
		 M43.08,26.38h0.18c0.22,0,0.45-0.07,0.45-0.34c0-0.27-0.28-0.33-0.49-0.33h-0.15V26.38z"/>
	<path class="st1" d="M44.48,24.66h1.04v0.22h-0.79v0.54h0.77v0.22h-0.77v0.73h0.79v0.22h-1.04V24.66z"/>
	<path class="st1" d="M47.27,26.59h-0.29l-0.57-0.82h-0.1v0.82h-0.24v-1.93h0.29c0.17,0,0.36,0,0.51,0.09
		c0.16,0.09,0.25,0.28,0.25,0.46c0,0.28-0.18,0.51-0.46,0.54L47.27,26.59z M46.31,25.58h0.08c0.25,0,0.51-0.05,0.51-0.35
		c0-0.3-0.29-0.35-0.52-0.35h-0.06V25.58z"/>
	<path class="st1" d="M50.59,25.63c0,0.57-0.45,1-1.01,1c-0.56,0-1.01-0.43-1.01-1c0-0.55,0.46-1,1.01-1
		C50.13,24.62,50.59,25.07,50.59,25.63z M50.35,25.63c0-0.42-0.32-0.78-0.77-0.78c-0.45,0-0.77,0.36-0.77,0.78
		c0,0.44,0.35,0.78,0.77,0.78C50,26.41,50.35,26.07,50.35,25.63z"/>
	<path class="st1" d="M51.32,24.88v0.54h0.67v0.22h-0.67v0.95h-0.24v-1.93h0.93v0.22H51.32z"/>
	<path class="st1" d="M53.78,24.88v0.54h0.67v0.22h-0.67v0.95h-0.24v-1.93h0.93v0.22H53.78z"/>
	<path class="st1" d="M55.01,24.66h1.04v0.22h-0.79v0.54h0.77v0.22h-0.77v0.73h0.79v0.22h-1.04V24.66z"/>
	<path class="st1" d="M56.57,24.66h0.4c0.59,0,1.08,0.31,1.08,0.95c0,0.66-0.48,0.97-1.09,0.97h-0.39V24.66z M56.81,26.37h0.08
		c0.49,0,0.92-0.18,0.92-0.74c0-0.56-0.42-0.74-0.92-0.74h-0.08V26.37z"/>
	<path class="st1" d="M58.55,24.66h1.04v0.22h-0.79v0.54h0.77v0.22h-0.77v0.73h0.79v0.22h-1.04V24.66z"/>
	<path class="st1" d="M61.33,26.59h-0.29l-0.57-0.82h-0.1v0.82h-0.24v-1.93h0.29c0.17,0,0.36,0,0.51,0.09
		c0.16,0.09,0.25,0.28,0.25,0.46c0,0.28-0.18,0.51-0.46,0.54L61.33,26.59z M60.37,25.58h0.08c0.25,0,0.51-0.05,0.51-0.35
		c0-0.3-0.29-0.35-0.52-0.35h-0.06V25.58z"/>
	<path class="st1" d="M62.05,26.11l-0.22,0.48h-0.26l0.92-2.01l0.92,2.01h-0.26l-0.22-0.48H62.05z M62.49,25.11l-0.34,0.78h0.69
		L62.49,25.11z"/>
	<path class="st1" d="M64.14,26.59H63.9v-1.71h-0.46v-0.22h1.16v0.22h-0.46V26.59z"/>
	<path class="st1" d="M65.28,26.59h-0.24v-1.93h0.24V26.59z"/>
	<path class="st1" d="M67.78,25.63c0,0.57-0.45,1-1.01,1c-0.56,0-1.01-0.43-1.01-1c0-0.55,0.46-1,1.01-1
		C67.32,24.62,67.78,25.07,67.78,25.63z M67.54,25.63c0-0.42-0.32-0.78-0.77-0.78c-0.45,0-0.77,0.36-0.77,0.78
		c0,0.44,0.35,0.78,0.77,0.78C67.18,26.41,67.54,26.07,67.54,25.63z"/>
	<path class="st1" d="M68.24,24.57l1.45,1.52v-1.42h0.24v2.01l-1.45-1.52v1.44h-0.24V24.57z"/>
	<path class="st1" d="M29.19,29.78h-0.24v-1.93h0.24V29.78z"/>
	<path class="st1" d="M29.78,27.76l1.45,1.52v-1.42h0.24v2.01l-1.45-1.52v1.44h-0.24V27.76z"/>
	<path class="st1" d="M32.58,29.78h-0.24v-1.71h-0.46v-0.22h1.16v0.22h-0.46V29.78z"/>
	<path class="st1" d="M33.49,27.86h1.04v0.22h-0.79v0.54h0.77v0.22h-0.77v0.73h0.79v0.22h-1.04V27.86z"/>
	<path class="st1" d="M36.27,29.78h-0.29l-0.57-0.82h-0.1v0.82h-0.24v-1.93h0.29c0.17,0,0.36,0,0.51,0.09
		c0.16,0.09,0.25,0.28,0.25,0.46c0,0.28-0.18,0.51-0.46,0.54L36.27,29.78z M35.31,28.77h0.08c0.25,0,0.51-0.05,0.51-0.35
		c0-0.3-0.29-0.35-0.52-0.35h-0.06V28.77z"/>
	<path class="st1" d="M36.69,27.76l1.45,1.52v-1.42h0.24v2.01l-1.45-1.52v1.44h-0.24V27.76z"/>
	<path class="st1" d="M39.25,29.3l-0.22,0.48h-0.26l0.92-2.01l0.92,2.01h-0.26l-0.22-0.48H39.25z M39.69,28.3l-0.34,0.78h0.69
		L39.69,28.3z"/>
	<path class="st1" d="M41.34,29.78H41.1v-1.71h-0.46v-0.22h1.16v0.22h-0.46V29.78z"/>
	<path class="st1" d="M42.48,29.78h-0.24v-1.93h0.24V29.78z"/>
	<path class="st1" d="M44.98,28.82c0,0.57-0.45,1-1.01,1c-0.56,0-1.01-0.43-1.01-1c0-0.55,0.46-1,1.01-1
		C44.52,27.82,44.98,28.27,44.98,28.82z M44.74,28.82c0-0.42-0.32-0.78-0.77-0.78c-0.45,0-0.77,0.36-0.77,0.78
		c0,0.44,0.35,0.78,0.77,0.78C44.38,29.6,44.74,29.26,44.74,28.82z"/>
	<path class="st1" d="M45.44,27.76l1.45,1.52v-1.42h0.24v2.01l-1.45-1.52v1.44h-0.24V27.76z"/>
	<path class="st1" d="M48,29.3l-0.22,0.48h-0.26l0.92-2.01l0.92,2.01H49.1l-0.22-0.48H48z M48.44,28.3l-0.34,0.78h0.69L48.44,28.3z"
		/>
	<path class="st1" d="M50.02,29.56h0.59v0.22h-0.83v-1.93h0.24V29.56z"/>
	<path class="st1" d="M51.02,27.86h1.04v0.22h-0.79v0.54h0.77v0.22h-0.77v0.73h0.79v0.22h-1.04V27.86z"/>
	<path class="st1" d="M53.58,27.86h0.4c0.59,0,1.08,0.31,1.08,0.95c0,0.66-0.48,0.97-1.09,0.97h-0.39V27.86z M53.82,29.56h0.08
		c0.49,0,0.92-0.18,0.92-0.74c0-0.56-0.42-0.74-0.92-0.74h-0.08V29.56z"/>
	<path class="st1" d="M55.55,27.86h1.04v0.22h-0.79v0.54h0.77v0.22h-0.77v0.73h0.79v0.22h-1.04V27.86z"/>
	<path class="st1" d="M58.37,29.56h0.59v0.22h-0.83v-1.93h0.24V29.56z"/>
	<path class="st1" d="M59.54,27.9l-0.34,0.68l-0.14-0.06l0.28-0.7L59.54,27.9z"/>
	<path class="st1" d="M60.4,29.3l-0.22,0.48h-0.26l0.92-2.01l0.92,2.01h-0.26l-0.22-0.48H60.4z M60.85,28.3l-0.34,0.78h0.69
		L60.85,28.3z"/>
	<path class="st1" d="M62.39,27.86v1.14c0,0.31,0.09,0.61,0.47,0.61c0.37,0,0.47-0.29,0.47-0.61v-1.14h0.24v1.22
		c0,0.42-0.26,0.75-0.71,0.75c-0.44,0-0.71-0.32-0.71-0.75v-1.22H62.39z"/>
	<path class="st1" d="M64.66,29.78h-0.24v-1.71h-0.46v-0.22h1.16v0.22h-0.46V29.78z"/>
	<path class="st1" d="M67.45,28.82c0,0.57-0.45,1-1.01,1c-0.56,0-1.01-0.43-1.01-1c0-0.55,0.46-1,1.01-1
		C66.99,27.82,67.45,28.27,67.45,28.82z M67.21,28.82c0-0.42-0.32-0.78-0.77-0.78c-0.45,0-0.77,0.36-0.77,0.78
		c0,0.44,0.35,0.78,0.77,0.78C66.86,29.6,67.21,29.26,67.21,28.82z"/>
	<path class="st1" d="M68.26,28.51L68.26,28.51l-0.23,1.27h-0.25l0.39-2.01l0.66,1.52l0.66-1.52l0.39,2.01h-0.25l-0.22-1.27h-0.01
		l-0.58,1.31L68.26,28.51z"/>
	<path class="st1" d="M72.2,28.82c0,0.57-0.45,1-1.01,1c-0.56,0-1.01-0.43-1.01-1c0-0.55,0.46-1,1.01-1
		C71.74,27.82,72.2,28.27,72.2,28.82z M71.96,28.82c0-0.42-0.32-0.78-0.77-0.78c-0.45,0-0.77,0.36-0.77,0.78
		c0,0.44,0.35,0.78,0.77,0.78C71.61,29.6,71.96,29.26,71.96,28.82z"/>
	<path class="st1" d="M72.67,27.86h0.24c0.36,0,0.71,0.09,0.71,0.53c0,0.14-0.08,0.3-0.21,0.37v0.01c0.23,0.04,0.39,0.26,0.39,0.49
		c0,0.39-0.33,0.54-0.67,0.54h-0.45V27.86z M72.91,28.71h0.06c0.23,0,0.41-0.05,0.41-0.32c0-0.27-0.18-0.32-0.41-0.32h-0.07V28.71z
		 M72.91,29.57h0.18c0.22,0,0.45-0.07,0.45-0.34c0-0.27-0.28-0.33-0.49-0.33h-0.15V29.57z"/>
	<path class="st1" d="M74.54,29.78H74.3v-1.93h0.24V29.78z"/>
	<path class="st1" d="M75.4,29.56h0.59v0.22h-0.83v-1.93h0.24V29.56z"/>
	<path class="st1" d="M76.4,27.86h1.04v0.22h-0.79v0.54h0.77v0.22h-0.77v0.73h0.79v0.22H76.4V27.86z"/>
	<g>
		<path class="st3" d="M40.43,13.31c0,0,1.24-0.04,1.34,0.81c0.1,0.85-0.92,1.57-0.92,1.57l-0.01,0c-0.04,0.03-0.07,0.06-0.11,0.08
			c-0.16,0.12-0.33,0.21-0.52,0.28l0.36,1.24h-1.46l-0.35-1.13h-0.94l-0.59,1.13h-1.53l2.08-3.99l2.63,0L40.43,13.31z M39,15.41
			c0.13,0,0.24-0.01,0.33-0.02c0.09-0.01,0.16-0.04,0.22-0.06c0.33-0.11,0.49-0.36,0.56-0.47c0.07-0.12,0.12-0.24,0.14-0.37
			c0.01-0.04,0-0.09-0.01-0.14c-0.01-0.05-0.04-0.09-0.07-0.13c-0.03-0.04-0.07-0.07-0.12-0.1c-0.05-0.02-0.11-0.04-0.17-0.04h-0.96
			l-0.7,1.33H39z"/>
		<path class="st3" d="M36.48,13.31h-1.83c-0.03,0-0.19,0.01-0.27,0.02c-0.09,0.01-0.19,0.04-0.31,0.09
			c-0.12,0.05-0.26,0.13-0.41,0.23c-0.15,0.1-0.31,0.24-0.47,0.42l-2.68,3.23h1.63l2.48-3.07l-0.39,3.07h1.36l0.43-3.34
			C36.1,13.35,36.48,13.31,36.48,13.31z"/>
		<path class="st3" d="M32.37,13.31h-1.61l-2.08,1.37l0.56-1.08c0.14-0.27,0.36-0.29,0.36-0.29l-1.74,0l-2.08,3.99h1.53l0.88-1.68
			l0.71,1.68h1.49l-0.8-2.08L32.37,13.31z"/>
		<g>
			<path class="st3" d="M28.29,11.5c-0.83,0.5-1.38,0.95-1.6,1.14c0,0-0.01,0.01,0,0.02c0.01,0.01,0.02,0.01,0.02,0.01
				c0.48-0.27,2.04-1.12,2.76-1.03c0.66,0.08,0.79,0.72,0.81,1c0,0,0,0.02,0,0.02c0,0.01,0,0.01,0.01,0.02c0.01,0,0.01,0,0.02-0.01
				l0-0.01c0.02-0.08,0.03-0.16,0.05-0.23C30.74,10.09,28.29,11.5,28.29,11.5z"/>
			<path class="st3" d="M31.63,9.63c0,0-0.01,0.01-0.01,0.01c0,0.01,0.01,0.01,0.01,0.01l0.01,0c0.26-0.08,5.13-1.57,7.23,0.05
				c0.45,0.35,0.8,0.6,1.06,0.76c-0.45,0.01-0.92,0.03-1.42,0.05h0c-0.01,0-0.01,0-0.01,0.01c0,0.01,0,0.01,0.01,0.01l0,0
				c3.51,0.13,6.13,0.63,7.26,1.07c0.09,0.04,0.17,0.07,0.24,0.1l0,0c0.37,0.18,0.64,0.53,0.7,0.95l0,0c0,0.01,0.01,0.01,0.01,0.01
				c0,0,0,0,0.01,0l0,0c0.22-0.13,0.37-0.37,0.37-0.64c0-0.1-0.02-0.2-0.06-0.29c0,0-0.02-0.04-0.02-0.05
				c-0.01-0.01-0.03-0.05-0.03-0.05c-0.01-0.01-0.02-0.02-0.02-0.04c-0.07-0.1-0.16-0.18-0.27-0.25c0,0-0.03-0.02-0.04-0.02
				c-0.62-0.34-2.25-0.84-5.44-0.89c-0.21-0.08-0.59-0.25-1.08-0.57C39.13,9.22,38.16,7.36,31.63,9.63L31.63,9.63z"/>
			<path class="st4" d="M38.14,12l-0.01-0.01c-0.98-1.79-2.24-1.46-5.02-1.56c-2.7-0.1-3.4-1.4-3.46-1.52l0,0
				c0,0-0.01-0.01-0.01-0.01h0h-2.4h0c-0.01,0-0.01,0.01-0.01,0.01c0,0,0,0,0,0.01l0,0c0.13,0.2,1.27,1.9,4.92,2.01
				c3.66,0.11,4.43-0.57,5.97,1.07l0.01,0.01c0,0,0.01,0.01,0.02,0C38.14,12.02,38.14,12.01,38.14,12z"/>
		</g>
		<path class="st3" d="M46.66,13.31h-1.83c-0.03,0-0.19,0.01-0.27,0.02c-0.08,0.01-0.19,0.04-0.31,0.09
			c-0.12,0.05-0.26,0.13-0.41,0.23c-0.15,0.1-0.31,0.24-0.47,0.42l-2.68,3.23h1.63l2.48-3.07l-0.39,3.07h1.36l0.43-3.34
			C46.28,13.35,46.66,13.31,46.66,13.31z"/>
	</g>
</g>
</svg>
