<?xml version="1.0" encoding="utf-8"?>
<!-- Generator: Adobe Illustrator 27.5.0, SVG Export Plug-In . SVG Version: 6.00 Build 0)  -->
<svg version="1.1" id="레이어_1" xmlns="http://www.w3.org/2000/svg" xmlns:xlink="http://www.w3.org/1999/xlink" x="0px"
	 y="0px" viewBox="0 0 106 32" style="enable-background:new 0 0 106 32;" xml:space="preserve">
<style type="text/css">
	.st0{fill:#FFFFFF;}
	.st1{fill:#6F6F6F;}
	.st2{fill:#0066B1;}
</style>
<g>
	<circle class="st0" cx="8.36" cy="15.85" r="3.57"/>
	<g>
		<g id="BMW-logo-grey-fallback-53px_1_">
			<g id="BMW-logo_1_">
				<g id="BMW-logo-fallback_1_">
					<g id="BMW_Grey-Colour_RGB-2_1_">
						<g id="BMW_Grey-Colour_RGB_1_">
							<path id="Shape_2_" class="st1" d="M8.36,9.66c-3.42,0-6.2,2.77-6.2,6.2s2.77,6.2,6.2,6.2s6.2-2.77,6.2-6.2
								S11.78,9.66,8.36,9.66L8.36,9.66z M14.15,15.85c0,3.2-2.59,5.79-5.79,5.79s-5.79-2.59-5.79-5.79s2.59-5.79,5.79-5.79
								S14.15,12.65,14.15,15.85z"/>
							<path id="Shape_1_" class="st1" d="M8.36,12.18v0.2l0,0c1.91,0,3.47,1.56,3.47,3.47h0.2C12.03,13.83,10.38,12.18,8.36,12.18
								L8.36,12.18 M8.36,19.32c-1.91,0-3.47-1.56-3.47-3.47h-0.2c0,2.03,1.64,3.67,3.67,3.67"/>
							<g id="Group_1_" transform="translate(7.197531, 3.271605)">
								<path id="W_1_" class="st1" d="M4.13,9.97c0.08,0.09,0.21,0.23,0.27,0.32L5.65,9.5c-0.06-0.08-0.16-0.2-0.24-0.29L4.62,9.73
									L4.57,9.77l0.04-0.06l0.35-0.69L4.71,8.77l-0.7,0.35L3.95,9.16L4,9.11l0.53-0.79C4.43,8.24,4.34,8.17,4.23,8.08l-0.8,1.24
									c0.1,0.08,0.23,0.19,0.32,0.27L4.5,9.21l0.05-0.04L4.51,9.22L4.13,9.97z"/>
								<path id="M_1_" class="st1" d="M1.28,8.39l0.34-0.76l0.02-0.07L1.64,7.63l0.04,1.02C1.79,8.66,1.92,8.68,2.04,8.7L1.99,7.19
									C1.81,7.17,1.64,7.16,1.47,7.15L1.14,7.98L1.12,8.04L1.11,7.98L0.78,7.15C0.6,7.16,0.43,7.17,0.26,7.19L0.21,8.7
									c0.12-0.02,0.25-0.04,0.37-0.05l0.04-1.02L0.6,7.56l0.02,0.07l0.34,0.76H1.28z"/>
								<path id="B_x5F_22d_1_" class="st1" d="M-1.49,9.59c0.2-0.21,0.31-0.45,0.11-0.68c-0.11-0.12-0.29-0.15-0.44-0.09
									l-0.01,0.01l0-0.01c0.02-0.06,0.04-0.25-0.12-0.38c-0.08-0.06-0.18-0.09-0.28-0.08c-0.19,0.02-0.33,0.14-0.72,0.58
									c-0.12,0.13-0.29,0.34-0.39,0.47l1.07,1.01C-1.91,10.03-1.77,9.88-1.49,9.59z M-2.89,9.35c0.22-0.26,0.44-0.5,0.55-0.59
									c0.03-0.03,0.07-0.06,0.11-0.07c0.07-0.02,0.14,0.03,0.16,0.1c0.02,0.07-0.03,0.14-0.08,0.2c-0.11,0.13-0.53,0.56-0.53,0.56
									L-2.89,9.35z M-2.47,9.74c0,0,0.41-0.43,0.54-0.56c0.05-0.05,0.09-0.09,0.12-0.1c0.05-0.02,0.1-0.03,0.14,0
									c0.05,0.03,0.07,0.08,0.05,0.13c-0.01,0.06-0.06,0.12-0.11,0.16c-0.06,0.06-0.54,0.57-0.54,0.57L-2.47,9.74z"/>
							</g>
							<path id="Path_2_" class="st2" d="M8.36,12.18v3.67H4.68C4.68,13.82,6.33,12.18,8.36,12.18z"/>
							<path id="Path_1_" class="st2" d="M12.03,15.85c0,2.03-1.64,3.67-3.67,3.67v-3.67H12.03z"/>
						</g>
					</g>
				</g>
			</g>
		</g>
		<g>
			<path class="st1" d="M20.61,20.96V10.84h2.01v4.75l3.84-4.75h2.47l-4.01,4.9l4.51,5.22h-2.67l-4.13-4.83v4.83H20.61z"/>
			<path class="st1" d="M29.28,17.43c0-0.98,0.2-1.92,0.59-2.5c0.56-0.83,1.41-1.29,2.9-1.29c1.4,0,2.3,0.47,2.85,1.23
				c0.47,0.66,0.64,1.57,0.64,2.55c0,0.99-0.2,1.88-0.62,2.46c-0.58,0.79-1.36,1.3-2.87,1.3c-1.53,0-2.3-0.46-2.86-1.23
				C29.53,19.42,29.28,18.49,29.28,17.43z M31.27,17.43c0,0.58,0.08,1.02,0.27,1.37c0.24,0.44,0.7,0.59,1.23,0.59
				c0.51,0,0.91-0.16,1.18-0.54c0.24-0.35,0.32-0.79,0.32-1.46c0-0.6-0.08-1.1-0.35-1.48c-0.24-0.34-0.6-0.47-1.15-0.47
				c-0.55,0-0.98,0.13-1.22,0.56C31.35,16.37,31.27,16.8,31.27,17.43z"/>
			<path class="st1" d="M37.61,20.96V10.84h1.96v10.12H37.61z"/>
			<path class="st1" d="M40.91,17.43c0-0.98,0.2-1.92,0.59-2.5c0.56-0.83,1.41-1.29,2.9-1.29c1.4,0,2.3,0.47,2.85,1.23
				c0.47,0.66,0.64,1.57,0.64,2.55c0,0.99-0.2,1.88-0.62,2.46c-0.58,0.79-1.36,1.3-2.87,1.3c-1.53,0-2.3-0.46-2.86-1.23
				C41.15,19.42,40.91,18.49,40.91,17.43z M42.89,17.43c0,0.58,0.08,1.02,0.27,1.37c0.24,0.44,0.7,0.59,1.23,0.59
				c0.51,0,0.91-0.16,1.18-0.54c0.24-0.35,0.32-0.79,0.32-1.46c0-0.6-0.08-1.1-0.35-1.48c-0.24-0.34-0.6-0.47-1.15-0.47
				c-0.55,0-0.98,0.13-1.22,0.56C42.98,16.37,42.89,16.8,42.89,17.43z"/>
			<path class="st1" d="M51.19,13.87v0.39c0.44-0.17,1.57-0.62,2.23-0.62c0.66,0,1.17,0.16,1.56,0.56c0.43,0.44,0.63,1.07,0.63,2.51
				v4.24h-1.96v-4.15c0-0.47,0-0.83-0.19-1.09c-0.15-0.19-0.42-0.19-0.66-0.19c-0.47,0-1.25,0.31-1.61,0.46v4.97h-1.96v-7.09H51.19z
				"/>
			<path class="st1" d="M60.39,10.84h2.59l2.48,5.68l2.48-5.68h2.55v10.12h-1.96v-7.07l-2.21,5.06h-1.76l-2.21-5.06v7.07h-1.96
				V10.84z"/>
			<path class="st1" d="M71.93,17.43c0-0.98,0.2-1.92,0.59-2.5c0.56-0.83,1.41-1.29,2.9-1.29c1.4,0,2.3,0.47,2.85,1.23
				c0.47,0.66,0.64,1.57,0.64,2.55c0,0.99-0.2,1.88-0.62,2.46c-0.58,0.79-1.36,1.3-2.87,1.3c-1.53,0-2.3-0.46-2.86-1.23
				C72.17,19.42,71.93,18.49,71.93,17.43z M73.92,17.43c0,0.58,0.08,1.02,0.27,1.37c0.24,0.44,0.7,0.59,1.23,0.59
				c0.51,0,0.91-0.16,1.18-0.54c0.24-0.35,0.32-0.79,0.32-1.46c0-0.6-0.08-1.1-0.35-1.48c-0.24-0.34-0.6-0.47-1.15-0.47
				c-0.55,0-0.98,0.13-1.22,0.56C74,16.37,73.92,16.8,73.92,17.43z"/>
			<path class="st1" d="M80.25,11.99h1.96v1.97h2.2v1.8h-2.2v2.07c0,0.34,0,0.6,0.05,0.83c0.04,0.19,0.15,0.38,0.47,0.47
				c0.36,0.11,0.85,0.13,1.32,0.16v1.76c-1.02-0.04-1.96-0.11-2.6-0.31c-0.59-0.19-0.87-0.48-1.02-0.86
				c-0.17-0.44-0.17-0.9-0.17-1.96V11.99z"/>
			<path class="st1" d="M85.08,17.43c0-0.98,0.2-1.92,0.59-2.5c0.56-0.83,1.41-1.29,2.9-1.29c1.4,0,2.3,0.47,2.85,1.23
				c0.47,0.66,0.64,1.57,0.64,2.55c0,0.99-0.2,1.88-0.62,2.46c-0.58,0.79-1.36,1.3-2.87,1.3c-1.53,0-2.3-0.46-2.86-1.23
				C85.33,19.42,85.08,18.49,85.08,17.43z M87.07,17.43c0,0.58,0.08,1.02,0.27,1.37c0.24,0.44,0.7,0.59,1.23,0.59
				c0.51,0,0.91-0.16,1.18-0.54c0.24-0.35,0.32-0.79,0.32-1.46c0-0.6-0.08-1.1-0.35-1.48c-0.24-0.34-0.6-0.47-1.15-0.47
				c-0.55,0-0.98,0.13-1.22,0.56C87.15,16.37,87.07,16.8,87.07,17.43z"/>
			<path class="st1" d="M93.41,13.87h1.96v0.81c0.28-0.2,0.55-0.39,0.89-0.55c0.36-0.17,0.97-0.34,1.61-0.43v1.97
				c-0.59,0.09-1.07,0.21-1.54,0.4c-0.43,0.17-0.75,0.36-0.95,0.5v4.39h-1.96V13.87z"/>
			<path class="st1" d="M98.17,15.89c0-0.64,0.17-1.25,0.64-1.65c0.47-0.4,1.14-0.59,2.28-0.59c0.87,0,2.27,0.28,2.75,0.4v1.79
				c-0.54-0.13-1.85-0.46-2.71-0.46c-0.5,0-0.7,0.04-0.83,0.13c-0.13,0.09-0.16,0.21-0.16,0.38c0,0.2,0.07,0.3,0.24,0.38
				c0.17,0.08,0.38,0.13,0.64,0.2l1.22,0.32c0.71,0.19,1.11,0.4,1.41,0.71c0.3,0.31,0.5,0.86,0.5,1.44c0,0.7-0.17,1.15-0.63,1.57
				c-0.5,0.44-1.3,0.68-2.51,0.68c-0.89,0-2.32-0.26-2.77-0.34v-1.79c0.51,0.11,1.84,0.39,2.98,0.39c0.36,0,0.6-0.01,0.77-0.12
				c0.15-0.09,0.19-0.23,0.19-0.39c0-0.17-0.07-0.3-0.21-0.38c-0.15-0.08-0.4-0.15-0.82-0.26l-1.28-0.35
				c-0.62-0.17-0.97-0.35-1.25-0.67C98.36,16.99,98.17,16.49,98.17,15.89z"/>
		</g>
	</g>
</g>
</svg>
