<?xml version="1.0" encoding="utf-8"?>
<!-- Generator: Adobe Illustrator 27.5.0, SVG Export Plug-In . SVG Version: 6.00 Build 0)  -->
<svg version="1.1" id="레이어_1" xmlns="http://www.w3.org/2000/svg" xmlns:xlink="http://www.w3.org/1999/xlink" x="0px"
	 y="0px" viewBox="0 0 106 32" style="enable-background:new 0 0 106 32;" xml:space="preserve">
<style type="text/css">
	.st0{fill:#FFE500;}
	.st1{fill:#004F9D;}
	.st2{fill:#1C1C1B;}
	.st3{fill:#FFFFFF;}
</style>
<g>
	<polygon class="st0" points="88.92,24.07 6.11,24.07 5.45,25.9 88.25,25.9 	"/>
	<path class="st1" d="M54.84,13.18c-2.14,0.44-5.05,2.01-5.02,4.89c0.02,1.66,2.02,2.58,4.32,2.51c1.29-0.03,2.51-0.27,2.67-0.3
		l0.85-2.21c-1.13,0.18-2.21,0.45-3.06,0.11c-1.53-0.61-0.59-2.2,0.49-2.7c0.48-0.22,1.12-0.43,1.91-0.41
		c0.32,0.01,1.11,0.02,1.42,0.72l1.07-2.57C57.65,12.77,55.8,12.99,54.84,13.18z M66.45,13.11l-0.98,2.63H63.7l0.97-2.63h-3.38
		l-2.68,7.31h3.36l0.92-2.47h1.78l-0.92,2.47h3.37l2.69-7.31H66.45z M46.38,13.11l-2.69,7.31h3.54l2.69-7.31H46.38z M39.34,13.11
		l-2.58,3.92c0,0,0.16-2.05,0.21-2.55c0.03-0.38-0.02-1.38-0.93-1.38h-4.1l-2.69,7.31h3.21l1.95-5.28l-0.41,5.28h2.85l3.5-5.19
		l-1.91,5.19h3.23l2.69-7.31H39.34z M101.78,13.11l-1.84,5.01c0.03-0.51,0.13-2.5,0.19-3.65c0.03-0.47-0.08-0.83-0.3-1.07
		c-0.28-0.29-0.64-0.29-0.64-0.29h-4.11l-2.69,7.31h2.99l1.91-5.17l-0.23,5.17h5.01l2.69-7.31H101.78z M89.41,13.11l-2.69,7.31h3.54
		l2.69-7.31H89.41z M74.45,15.03h4.04l0.71-1.91h-7.38l-2.69,7.31h7.46l0.72-1.97h-4.12l0.3-0.81h3.84l0.66-1.8h-3.84L74.45,15.03z
		 M84.6,13.11h-3.44l-2.69,7.31h6.91l0.89-2.43H82.8L84.6,13.11z"/>
	<path class="st2" d="M2.32,10.52c0,0.01,0,0.01,0.01,0.02c0.01,0.03,0.03,0.07,0.05,0.13c0.13,0.31,0.41,0.97,0.73,1.55
		c0.19,0.33,0.36,0.59,0.54,0.8c-0.14,0.2-0.32,0.52-0.42,0.94c-0.1,0.43-0.06,0.99,0.13,1.53c0.08,0.23,0.17,0.44,0.29,0.63
		c0,0,0,0,0,0c0,0,0,0,0,0.01c-0.01,0.02-0.01,0.03-0.01,0.05c-0.13,1.06,0.32,2.1,1.22,2.77c0.14,0.11,0.29,0.2,0.45,0.28
		c0.13,0.4,0.4,0.78,0.79,1.08c0.26,0.21,0.57,0.37,0.89,0.49c0,0,0,0.01,0.01,0.01c0.34,0.48,0.86,0.83,1.5,1.01
		c0.16,0.05,0.33,0.08,0.49,0.1c0.01,0.01,0.02,0.02,0.03,0.03c0.31,0.3,0.72,0.53,1.19,0.67c-0.08,0.62,0,1.09,0.13,1.44h17.53
		c0-0.58-0.15-1.15-0.46-1.67c-0.01-0.01-0.02-0.03-0.03-0.04c0.11-0.81-0.08-1.62-0.53-2.3c-0.5-0.74-1.25-1.24-2.12-1.42
		c-0.09-0.02-0.18-0.03-0.27-0.04c-0.01,0-0.02,0-0.04,0c-0.89-0.87-1.84-1.31-2.17-1.45c0.01-0.05,0.02-0.09,0.03-0.14
		c0.01,0,0.02-0.01,0.04-0.01c0.95-0.41,1.52-1.11,1.64-2.03c0.09-0.72-0.11-1.52-0.51-2.08c0-0.01,0-0.02,0-0.03
		c0.1-0.98-0.05-1.83-0.44-2.53c-0.32-0.57-0.79-1.03-1.35-1.29c0,0-0.01,0-0.01,0c-0.15-0.52-0.82-0.92-1.54-0.9
		c-0.56,0.02-1.18,0.28-1.41,0.71c-0.86,0.31-2.19,1.11-2.59,3.13c-0.59,0.45-0.98,1.1-1.08,1.82c-0.1,0.8,0.17,1.59,0.71,2.19
		c-0.55,0-1.43,0.05-2.47,0.26c-0.01,0-0.02,0-0.03,0.01c-0.8-0.57-1.83-0.78-2.76-0.54c-0.04,0.01-0.07,0.03-0.1,0.05
		c-0.26-0.08-0.54-0.13-0.84-0.17c-0.02,0-0.04,0-0.06,0c-0.13-0.43-0.36-0.83-0.68-1.14c-0.02-0.02-0.05-0.04-0.05-0.05
		c0,0,0,0,0,0c-0.05-0.32-0.14-0.66-0.17-0.79c-0.09-0.31-0.23-0.65-0.64-1.06c-0.26-0.26-0.54-0.42-0.73-0.51
		c0.04-0.1,0.06-0.19,0.07-0.24c0-0.02,0.01-0.04,0.01-0.06c0-0.01,0.1-0.99,0.22-1.57c0-0.01,0-0.01,0-0.02
		C7.8,8.19,7.81,8.16,7.81,8.14c0,0,0-0.01,0-0.01c0.01-0.18-0.05-0.35-0.17-0.49C7.48,7.47,7.25,7.37,7,7.37
		c-0.36,0-0.67,0.18-0.87,0.5c-0.12,0.19-0.2,0.41-0.26,0.6C5.53,7.83,5.1,6.99,4.79,6.37C4.78,6.36,4.78,6.35,4.77,6.34
		c-0.11-0.18-0.36-0.39-0.7-0.39c-0.1,0-0.21,0.02-0.31,0.06c-0.15-0.13-0.34-0.2-0.54-0.2c-0.1,0-0.2,0.02-0.3,0.05
		c-0.35,0.12-0.55,0.43-0.55,0.8c-0.27,0.1-0.46,0.32-0.51,0.6c-0.04,0.19,0,0.36,0.02,0.44c0,0.01,0.01,0.03,0.02,0.06
		C1.89,7.76,1.88,7.78,1.88,7.79C1.68,8.09,1.58,8.66,2.32,10.52"/>
	<path class="st3" d="M27.28,24.07h-0.69c0.22-0.27,0.41-0.57,0.54-0.89C27.23,23.47,27.28,23.77,27.28,24.07"/>
	<path class="st3" d="M15.87,16.57c0,0,0.26,0.02,0.41,0.08c0.26,0.1,0.77,0.59,1.05,0.63c0.05,0.01,0.18-0.03,0.04-0.12
		c-0.04-0.03-0.36-0.31-0.24-0.46c0,0,0,0,0-0.01c0.04-0.06,0.1-0.07,0.16-0.06c0.4,0.1,0.74,0.16,0.85,0.17
		c0.07,0.01,0.12,0.01,0.15-0.01c0.03-0.02,0.01-0.04-0.07-0.06c-0.62-0.17-1.3-0.43-1.79-0.79c-0.64-0.49-0.99-1.27-0.89-2.05
		c0.07-0.57,0.37-1.07,0.84-1.43c0.19-0.14,0.48-0.24,0.56-0.27c0.23-0.08-0.14-0.14-0.17-0.15c-0.09-0.02-0.1-0.11-0.02-0.41
		c0.43-1.38,1.38-1.99,2.17-2.26c0.14-0.04,0.35-0.1,0.49-0.12c0.22-0.03,0.14-0.13-0.11-0.16c0,0-0.08-0.01-0.04-0.06
		c0.01-0.01,0.05-0.06,0.12-0.11c0.18-0.11,0.43-0.2,0.72-0.21c0.51-0.01,0.94,0.27,1,0.53c0,0,0.02,0.05-0.04,0.05
		c-0.1,0-0.18,0.04-0.04,0.11c0.03,0.02,0.17,0.06,0.36,0.14c0.01,0.01,0.02,0.01,0.03,0.01c0.38,0.18,1.57,0.9,1.49,2.95
		c0,0,0,0,0,0c0,0.06-0.01,0.12-0.01,0.18c0,0.06-0.01,0.11-0.02,0.17c-0.11-0.01-0.16,0.03-0.08,0.11c0.06,0.06,0.2,0.23,0.28,0.37
		c0.27,0.44,0.4,1.03,0.33,1.57c-0.1,0.73-0.55,1.18-1,1.44c-0.2,0.11-0.67,0.35-1.26,0.48c-0.12,0.03-0.06,0.18,0.49,0.17
		c0.05,0.01,0.15,0.01,0.18,0.07c0.06,0.12-0.05,0.35-0.29,0.49c-0.21,0.12-0.04,0.15,0.25,0.06c0.08-0.01,0.31,0.08,0.33,0.09
		c0.47,0.21,1.65,0.82,2.53,2.01c0.61,0.88,0.84,1.58,0.64,2.01c-0.19,0.42-0.74,0.5-0.75,0.5c0,0-0.01,0-0.01,0
		c-2.14,0.33-5.86-0.25-8.42-1.01c-0.46-0.13-1.14-0.38-1.72-0.63c0.57-1.23,0.35-2.78-0.58-3.82c-0.01-0.01-0.03-0.03-0.04-0.04
		C14.67,16.59,15.43,16.56,15.87,16.57"/>
	<path class="st3" d="M26.35,20.38c0.41,0.61,0.56,1.35,0.42,2.08c-0.12,0.61-0.45,1.16-0.91,1.56c0.01-0.51-0.08-1.1-0.45-1.57
		c0.15-0.12,0.29-0.27,0.38-0.48c0.28-0.63,0.05-1.5-0.7-2.57c0,0,0,0,0-0.01c-0.02-0.02-0.03-0.04-0.05-0.06
		C25.57,19.54,26.03,19.9,26.35,20.38"/>
	<path class="st3" d="M13.37,17.16c0.86,0.96,1,2.43,0.34,3.49c-0.74,1.19-2.06,1.78-3.29,1.46c-0.18-0.05-0.35-0.11-0.5-0.18
		c0.12-0.02,0.23-0.04,0.35-0.07c1.21-0.33,2.11-1.44,2.25-2.78c0.08-0.84-0.15-1.69-0.65-2.31c-0.18-0.22-0.38-0.41-0.61-0.57
		C12.04,16.2,12.83,16.55,13.37,17.16"/>
	<path class="st3" d="M11.42,17.11c0.41,0.51,0.6,1.21,0.53,1.91c-0.11,1.1-0.85,2.02-1.84,2.29c-0.83,0.23-1.63,0.03-2.17-0.33
		c1.2-0.02,2.36-0.85,2.75-2.05c0.19-0.6,0.18-1.26-0.04-1.85c-0.1-0.27-0.24-0.52-0.42-0.74C10.75,16.49,11.13,16.75,11.42,17.11"
		/>
	<path class="st3" d="M9.54,17.15c0.04-0.23,0.06-0.46,0.06-0.68c0.59,0.57,0.82,1.46,0.56,2.29c-0.37,1.14-1.58,1.87-2.71,1.61
		c-0.48-0.11-1.03-0.4-1.37-0.84c0.2,0.04,0.41,0.07,0.62,0.07c0.39,0,0.78-0.08,1.15-0.24C8.72,18.97,9.35,18.15,9.54,17.15"/>
	<path class="st3" d="M8.7,15.27C8.7,15.27,8.7,15.27,8.7,15.27c0.3,0.5,0.41,1.13,0.29,1.77c-0.16,0.82-0.66,1.49-1.36,1.79
		c-0.79,0.35-1.7,0.22-2.44-0.33c-0.58-0.44-0.94-1.06-1-1.72c0,0,0,0,0,0c0.06,0.05,0.12,0.1,0.18,0.14
		c0.44,0.32,0.99,0.49,1.57,0.49c0.4,0,0.69-0.08,0.75-0.09c1.03-0.29,1.54-0.91,1.78-1.38C8.58,15.7,8.65,15.47,8.7,15.27"/>
	<path class="st3" d="M2.36,8.07c0.01,0,0.02-0.01,0.02-0.02C2.4,8.03,2.42,8.02,2.45,8.01c0.01,0,0.02,0,0.02,0
		c0.03,0,0.05,0,0.07,0c0.02,0,0.03,0.01,0.05,0.01c0.16,0.06,0.28,0.27,0.32,0.55c0.11,0.82,0.49,1.37,0.51,1.39
		c0.02,0.03,0.06,0.05,0.1,0.05c0.02,0,0.05-0.01,0.07-0.02c0.05-0.04,0.07-0.12,0.03-0.17c0,0-0.37-0.52-0.47-1.28
		C3.11,8.15,2.94,7.88,2.68,7.79C2.62,7.76,2.56,7.76,2.5,7.76C2.47,7.68,2.44,7.61,2.43,7.57C2.4,7.46,2.36,7.25,2.59,7.17
		c0.01,0,0.03-0.01,0.04-0.01c0.01,0,0.02,0,0.02,0c0.17-0.02,0.39,0.06,0.61,0.85c0.2,0.73,0.67,1.43,0.69,1.46
		c0.02,0.04,0.06,0.05,0.1,0.05c0.02,0,0.05-0.01,0.07-0.02C4.18,9.47,4.2,9.4,4.16,9.34c0-0.01-0.46-0.71-0.66-1.4
		c-0.1-0.34-0.23-0.71-0.46-0.9C3.01,6.96,2.97,6.86,2.96,6.83C2.93,6.72,2.89,6.46,3.11,6.38c0.04-0.02,0.09-0.02,0.12-0.02
		c0.18,0,0.27,0.15,0.31,0.27c0.01,0.02,0.01,0.03,0.02,0.05l1.01,2.4C4.58,9.1,4.59,9.11,4.6,9.12c0.03,0.03,0.08,0.04,0.12,0.02
		C4.77,9.12,4.8,9.06,4.78,9L3.8,6.66c0.02-0.04,0.05-0.09,0.11-0.12C3.97,6.52,4.03,6.5,4.07,6.5c0.15,0,0.22,0.12,0.22,0.12
		s1.3,2.55,1.55,2.99c-0.1,0.17-0.18,0.33-0.19,0.37c-0.02,0.07,0.03,0.12,0.06,0.06c0.07-0.11,0.18-0.23,0.27-0.34c0,0,0,0,0,0
		c0,0,0,0,0,0c0,0,0.01-0.01,0.01-0.01c0.06-0.11,0.25-0.62,0.33-0.78C6.37,8.69,6.47,8.37,6.6,8.17C6.71,7.99,6.87,7.93,7,7.93
		c0.15,0,0.27,0.07,0.26,0.15c0,0.03-0.32,2.01-0.32,2.01c-0.08,0.41-0.16,1-0.2,1.34c0,0.08-0.01,0.17-0.03,0.25
		c0,0.02,0,0.03,0,0.03s0,0.02-0.01,0.05c-0.07,0.3-0.18,0.53-0.18,0.53l0.1,0.47c0,0,0,0,0,0c0.04,0.2,0.09,0.41,0.1,0.47
		c0.07,0.27-0.02,0.42,0.03,0.48c0.07,0.07,0.23-0.28,0.28-0.46c0.03-0.15-0.02-0.45-0.07-0.65c0.14,0.07,0.35,0.19,0.55,0.39
		c0.34,0.34,0.44,0.61,0.5,0.82c0.06,0.22,0.17,0.69,0.18,0.94c0.01,0.25-0.08,1.6-1.67,2.04c0,0-0.24,0.07-0.59,0.07
		c-0.35,0-0.82-0.08-1.24-0.38c-0.77-0.55-1.07-1.74-0.92-2.37c0.07-0.3,0.2-0.54,0.3-0.69c0.07,0.05,0.15,0.08,0.23,0.1l0.05,0.22
		c0.01,0.03,0.13,0.63,0.36,0.82c0.14,0.11,0.36,0.12,0.43,0.12c0.07,0,0.24-0.01,0.27-0.08c0-0.01,0.01-0.04-0.02-0.07
		c-0.01-0.01-0.03-0.02-0.07-0.05C5.21,14.4,5,14.28,4.95,14.08c-0.03-0.12-0.12-0.53-0.18-0.77c0.24-0.19,0.26-0.39-0.05-0.33
		c-0.19,0.04-0.36-0.05-0.49-0.15c-0.62-0.54-1.27-2.21-1.4-2.5C2.3,8.98,2.19,8.27,2.36,8.07"/>
	<path class="st3" d="M10.74,22.74c0.12,0.01,0.23,0.02,0.35,0.02c1.16,0,2.28-0.61,3-1.66c0.61,0.28,1.34,0.53,1.84,0.68
		c1.41,0.41,3.02,0.75,4.54,0.94c0.96,0.12,1.83,0.18,2.6,0.18c0.57,0,1.08-0.03,1.52-0.1c0.03,0,0.14-0.02,0.29-0.07
		c0.35,0.37,0.42,0.9,0.39,1.34H10.93C10.79,23.8,10.67,23.37,10.74,22.74"/>
	<path class="st2" d="M18.66,13.04c0.07,0.08,0.15,0.13,0.24,0.17c0.08,0.03,0.16,0.04,0.25,0.05c0,0,0.14,0.01,0.23,0.01
		c0.35-0.01,0.68-0.55,0.69-1.08c0.01-0.48-0.05-0.85-0.4-1.07c-0.04-0.02-0.07-0.04-0.11-0.06c-0.15-0.06-0.32-0.06-0.47-0.02
		c-0.18,0.05-0.32,0.18-0.41,0.34c-0.1,0.16-0.16,0.35-0.2,0.53c-0.04,0.19-0.05,0.38-0.03,0.57
		C18.47,12.68,18.53,12.89,18.66,13.04z M18.59,12.19c0.02-0.23,0.15-0.94,0.73-0.89c0.44,0.04,0.55,0.37,0.58,0.65
		c0,0.01,0,0.03,0,0.04c0.03,0.28-0.02,0.47-0.09,0.65c-0.03,0.07-0.06,0.14-0.1,0.2c-0.11,0.17-0.24,0.27-0.35,0.28
		c-0.01,0-0.02,0-0.03,0c0.19-0.1,0.35-0.36,0.37-0.68c0.04-0.42-0.16-0.79-0.45-0.81c-0.14-0.01-0.27,0.06-0.37,0.17
		c0.1,0,0.19,0.1,0.19,0.24c0.01,0.14-0.07,0.25-0.18,0.26c-0.09,0-0.16-0.06-0.19-0.16c-0.02,0.07-0.03,0.14-0.04,0.22
		c-0.02,0.26,0.04,0.49,0.16,0.64c-0.02-0.01-0.03-0.03-0.05-0.05c-0.09-0.11-0.15-0.28-0.18-0.48
		C18.59,12.38,18.58,12.29,18.59,12.19z M21.92,14.25c-0.06-0.01-0.08,0.04-0.05,0.06c0.01,0.01,0.02,0.01,0.02,0.02
		c-0.02,0.01-0.04,0.03-0.06,0.04c-0.13,0.06-0.28,0.11-0.43,0.14c-0.36,0.08-0.73,0.09-1.1,0.06c-0.6-0.05-1.21-0.18-1.76-0.42
		c-0.05-0.02-0.1-0.04-0.15-0.07c-0.03-0.01-0.05-0.03-0.07-0.04v0c-0.08-0.03-0.16,0.03-0.16,0.11c0,0.06,0.04,0.1,0.09,0.12
		c0.15,0.08,0.31,0.14,0.47,0.19c0.14,0.06,0.24,0.19,0.34,0.29c0.13,0.13,0.26,0.25,0.42,0.34c0.3,0.17,0.68,0.23,1.02,0.18
		c0.18-0.03,0.35-0.09,0.5-0.19c0.11-0.07,0.21-0.15,0.31-0.23c0.06-0.05,0.12-0.1,0.19-0.14c0.04-0.02,0.31-0.13,0.46-0.22
		c0,0.05,0,0.1,0.03,0.1c0.04,0.01,0.07-0.06,0.09-0.12c0.01-0.06,0-0.12-0.01-0.15C22.04,14.31,21.98,14.25,21.92,14.25z
		 M20.64,15.03c-0.16,0.05-0.32,0.06-0.49,0.04c-0.16-0.01-0.32-0.05-0.47-0.12c-0.16-0.08-0.3-0.19-0.42-0.32
		c0.59,0.14,1.21,0.22,1.81,0.16C20.94,14.89,20.8,14.98,20.64,15.03z M18.4,13.87c-0.01-0.05-0.07-0.05-0.1-0.05
		c-0.05,0-0.13,0.02-0.18,0.04c-0.14,0.05-0.26,0.23-0.25,0.33c0,0.02,0.01,0.03,0.02,0.04c0.01,0.01,0.02,0.02,0.05,0.02
		c0,0,0,0,0,0l0,0l0,0c0.03,0,0.04-0.02,0.05-0.05c0-0.03,0.02-0.08,0.06-0.11c0.04-0.04,0.1-0.1,0.28-0.14
		C18.37,13.94,18.41,13.92,18.4,13.87z M22.27,11.87c-0.05-0.18-0.15-0.34-0.3-0.43c-0.13-0.08-0.29-0.11-0.45-0.1
		c-0.04,0-0.08,0.01-0.12,0.02c-0.38,0.12-0.53,0.46-0.64,0.92c-0.12,0.51,0.05,1.11,0.37,1.21c0.08,0.03,0.21,0.05,0.21,0.05
		c0.08,0.02,0.17,0.02,0.25,0.01c0.09-0.01,0.18-0.04,0.26-0.1c0.16-0.11,0.27-0.3,0.34-0.48c0.07-0.18,0.11-0.36,0.12-0.56
		C22.33,12.24,22.32,12.05,22.27,11.87z M22.13,12.66c-0.02,0.09-0.04,0.18-0.08,0.26c-0.08,0.18-0.18,0.33-0.29,0.41
		c-0.05,0.03-0.1,0.06-0.16,0.07c0.18-0.11,0.32-0.36,0.35-0.67c0.04-0.42-0.16-0.79-0.44-0.81c-0.13-0.01-0.26,0.06-0.36,0.18
		c0.1,0,0.18,0.1,0.19,0.24c0.01,0.14-0.07,0.25-0.18,0.26c-0.08,0-0.16-0.06-0.18-0.16c-0.02,0.07-0.03,0.14-0.04,0.22
		c-0.03,0.28,0.05,0.54,0.19,0.68c-0.09-0.05-0.16-0.17-0.21-0.33c-0.02-0.07-0.04-0.14-0.04-0.22c-0.02-0.19-0.02-0.39,0.08-0.64
		c0-0.01,0.01-0.02,0.01-0.04c0.1-0.26,0.29-0.54,0.71-0.47C22.23,11.72,22.17,12.43,22.13,12.66z"/>
</g>
</svg>
