<?xml version="1.0" encoding="utf-8"?>
<!-- Generator: Adobe Illustrator 27.5.0, SVG Export Plug-In . SVG Version: 6.00 Build 0)  -->
<svg version="1.1" id="레이어_1" xmlns="http://www.w3.org/2000/svg" xmlns:xlink="http://www.w3.org/1999/xlink" x="0px"
	 y="0px" viewBox="0 0 106 32" style="enable-background:new 0 0 106 32;" xml:space="preserve">
<style type="text/css">
	.st0{fill:#1428A0;}
</style>
<g>
	<g>
		<path class="st0" d="M57.91,9.72h-0.69l-0.95,2.49h0.69c0.35,0,0.55-0.1,0.63-0.32l0.71-1.85C58.38,9.83,58.26,9.72,57.91,9.72z"
			/>
		<path class="st0" d="M44.03,9.7h-0.61l-1.07,2.79h0.61c0.34,0,0.55-0.1,0.63-0.32l0.82-2.15C44.49,9.8,44.37,9.7,44.03,9.7z"/>
		<path class="st0" d="M98.38,11.23L102,7.75h-4.84l0.66-0.64H82.32c-0.87,0-0.89,0-1.62,0.05c-0.46,0.03-0.91,0.21-1.16,0.37
			c-0.63,0.39-1.09,0.91-1.43,1.8l-0.38,1.04l0.04-3.25h-4.92l-2.19,2.92c0.25-0.69,0.37-1.59-0.09-2.14
			c-0.32-0.38-0.82-0.78-1.89-0.78H11.53c-2.73,0-3.77,1.25-4.17,2.29l-0.97,2.53l-0.03,0.07l8.2,0h0.14h1.89
			c0.42,0,0.67-0.14,0.78-0.42l0.13-0.34c0.05-0.14,0.05-0.25-0.02-0.34c-0.08-0.12-0.24-0.17-0.51-0.17h-2.47
			c-0.42,0-0.67,0.14-0.78,0.42l-0.13,0.34H9.61l0.17-0.45c0.43-1.12,1.51-1.66,3.3-1.66h6.52c1.05,0,1.71,0.19,1.96,0.56
			c0.17,0.24,0.17,0.58,0,1.01l-0.27,0.7c-0.43,1.12-1.51,1.66-3.3,1.66H5.86L5.83,13.4L4,18.19h37.5l1.14-2.98h0.31
			c0.37,0,1.08,0.03,1.89-0.22l-1.23,3.2h19.11l0.77-2.1l0.25,2.1h6.38l0.87-1.23h1.9l-0.03,1.23l22.93,0l3.66-3.52h-2.33l3.58-3.45
			L98.38,11.23z M95.41,8.15l-0.59,0.56h4.02l-1.59,1.53h-5.31l1.05-1.01l-1.96-1.08H95.41z M85.37,8.16c0.42,0,0.79,0.12,1.02,0.35
			c0.28,0.3,0.36,0.77,0.16,1.34L86,11.31h-2.5l0.4-1.07h-1.74l0.76-2.08H85.37z M21.72,15.92H10.5c-1.05,0-1.71-0.19-1.96-0.56
			c-0.17-0.24-0.17-0.58,0-1.01l0.2-0.52h3.98l-0.09,0.25c-0.05,0.13-0.05,0.25,0.02,0.34c0.08,0.12,0.24,0.17,0.51,0.17l9.08,0
			L21.72,15.92z M29.51,15.56c-0.43,1.12-1.51,1.67-3.28,1.67h-1.58c-1.77,0-2.43-0.55-2-1.67l0.73-1.92h2.78l-0.67,1.75
			c-0.08,0.22,0.04,0.32,0.38,0.32h0.26c0.34,0,0.55-0.1,0.63-0.32l0.41-1.08c0.11-0.28,0.02-0.42-0.27-0.58l-2-1.14
			c-0.72-0.4-0.84-0.77-0.6-1.41l0.54-1.43c0.43-1.12,1.51-1.67,3.28-1.67h1.54c1.77,0,2.43,0.55,2,1.67l-0.63,1.65h-2.78l0.56-1.48
			c0.08-0.22-0.04-0.32-0.38-0.32h-0.22c-0.34,0-0.55,0.1-0.63,0.32l-0.32,0.85c-0.11,0.28-0.02,0.42,0.27,0.58l2,1.14
			c0.72,0.4,0.85,0.75,0.6,1.41L29.51,15.56z M34.07,17.23h-1.72c-1.77,0-2.43-0.55-2-1.67l2.83-7.41h2.84l-2.75,7.21
			c-0.08,0.22,0.04,0.32,0.38,0.32h0.3c0.35,0,0.55-0.1,0.63-0.32l2.75-7.21h2.84l-2.83,7.41C36.92,16.68,35.83,17.23,34.07,17.23z
			 M43.08,14.03h-1.32l-1.19,3.12h-2.84l3.44-9h4.16c1.77,0,2.43,0.55,2,1.67l-0.97,2.53C45.93,13.48,44.85,14.03,43.08,14.03z
			 M50.63,17.16h-5.32l3.44-9h5.27l-0.61,1.61h-2.43l-0.77,2.02h2.33l-0.61,1.61H49.6l-0.83,2.16h2.48L50.63,17.16z M55.6,17.16
			l1.18-3.09c0.08-0.22-0.04-0.32-0.38-0.32h-0.71l-1.3,3.41h-2.84l3.44-9h4.24c1.76,0,2.43,0.55,2,1.67l-0.66,1.74
			c-0.3,0.77-0.89,1.16-1.73,1.34c0.81,0.15,1.04,0.5,0.8,1.16l-1.18,3.1H55.6z M76.48,17.16h-2.59l0.03-1.43h-2.84l1.38-1.95h1.51
			l0.13-3.12l-4.6,6.5h-2.05h-0.69h-1.9l-0.36-2.96h-0.97l0.76-2.07h1.99l0.68-1.88h-2.53l-2.52,6.91h-2.54l3.3-9h5.85
			c0.54,0,0.91,0.15,1.11,0.43c0.19,0.28,0.21,0.7,0.01,1.26l-0.98,2.66c-0.22,0.62-0.53,1.07-0.96,1.34
			c-0.2,0.13-0.41,0.22-0.65,0.28l0.31,2.25l6.18-8.22h3.08L76.48,17.16z M78.34,17.16c-0.42,0-0.79-0.12-1.02-0.35
			c-0.28-0.3-0.36-0.77-0.16-1.34l2.05-5.62c0.22-0.62,0.55-1.07,0.96-1.34c0.37-0.24,0.79-0.35,1.35-0.35h0.85l-3.3,9H78.34z
			 M84.49,15.47c-0.22,0.62-0.55,1.07-0.96,1.34c-0.37,0.24-0.79,0.35-1.35,0.35h-2.55l0.76-2.08h1.74l0.4-1.05h2.5L84.49,15.47z
			 M86.54,17.16c-0.42,0-0.79-0.12-1.02-0.35c-0.28-0.3-0.36-0.77-0.16-1.34l2.05-5.62c0.22-0.62,0.55-1.07,0.96-1.34
			c0.37-0.24,0.79-0.35,1.35-0.35h0.85l-3.3,9H86.54z M94.71,17.16h-5.31l1.05-1.01l-1.96-1.07h4.37l-0.59,0.56h4.02L94.71,17.16z
			 M96,13.68h-5.31l1.05-1.01l-1.96-1.07h4.37l-0.59,0.56h4.02L96,13.68z"/>
	</g>
	<g>
		<path class="st0" d="M34.04,24.04c-0.01,0.04-0.05,0.06-0.09,0.06h-0.89c-0.04,0-0.05-0.02-0.04-0.06l0.87-2.27
			c0.01-0.04,0.05-0.06,0.09-0.06h0.89c0.04,0,0.05,0.02,0.04,0.06l-0.21,0.55l0.94-0.14l0.23-0.59c0.14-0.36-0.06-0.65-0.44-0.65
			H34c-0.38,0-0.8,0.29-0.94,0.65l-1.01,2.65c-0.14,0.36,0.06,0.65,0.44,0.65h1.43c0.38,0,0.8-0.29,0.94-0.65l0.26-0.68l-0.83-0.14
			L34.04,24.04z"/>
		<polygon class="st0" points="38.99,20.93 38.4,22.48 37.2,22.48 37.8,20.93 36.89,20.93 35.38,24.88 36.29,24.88 36.9,23.27 
			38.1,23.27 37.48,24.88 38.39,24.88 39.9,20.93 		"/>
		<path class="st0" d="M38.86,24.88h0.92l0.55-0.78h1.28l-0.04,0.78h0.92l0.15-3.95h-0.91L38.86,24.88z M41.64,23.34h-0.75
			l0.88-1.32L41.64,23.34z"/>
		<polygon class="st0" points="47.37,20.93 45.42,23.3 45.29,20.93 44.41,20.93 42.9,24.88 43.78,24.88 44.57,22.8 44.67,24.27 
			45.43,24.27 46.65,22.8 45.86,24.88 46.73,24.88 48.24,20.93 		"/>
		<path class="st0" d="M51.78,21.58c0.14-0.36-0.06-0.65-0.44-0.65h-2.23l-1.51,3.95h0.9l0.55-1.45h1.32c0.38,0,0.8-0.29,0.94-0.65
			L51.78,21.58z M50.5,22.59c-0.01,0.04-0.05,0.06-0.08,0.06h-1.05l0.36-0.94h1.05c0.04,0,0.05,0.02,0.04,0.06L50.5,22.59z"/>
		<polygon class="st0" points="52.62,20.93 51.11,24.88 52.01,24.88 53.53,20.93 		"/>
		<path class="st0" d="M56.59,20.93h-1.53c-0.38,0-0.8,0.29-0.94,0.65l-1.01,2.65c-0.14,0.36,0.06,0.65,0.44,0.65h1.53
			c0.38,0,0.8-0.29,0.94-0.65l1.01-2.65C57.16,21.22,56.97,20.93,56.59,20.93z M55.18,24.04c-0.01,0.04-0.05,0.06-0.09,0.06h-0.97
			c-0.04,0-0.05-0.02-0.04-0.06l0.87-2.27c0.01-0.04,0.05-0.06,0.09-0.06h0.97c0.04,0,0.05,0.02,0.04,0.06L55.18,24.04z"/>
		<polygon class="st0" points="60.37,20.93 59.49,23.24 58.99,20.93 58.12,20.93 56.6,24.88 57.48,24.88 58.36,22.58 58.86,24.88 
			59.73,24.88 61.25,20.93 		"/>
		<path class="st0" d="M63.61,22.69c-0.74-0.22-1.06-0.31-1.11-0.33c-0.03-0.01-0.06-0.03-0.04-0.08l0.2-0.51
			c0.01-0.04,0.05-0.06,0.08-0.06h0.84c0.04,0,0.05,0.02,0.04,0.06l-0.14,0.37L64.42,22l0.16-0.42c0.14-0.36-0.06-0.65-0.44-0.65
			h-1.37c-0.38,0-0.8,0.29-0.94,0.65l-0.34,0.88c-0.14,0.36,0.01,0.52,0.34,0.62c0.69,0.21,0.99,0.3,1.08,0.33
			c0.05,0.01,0.07,0.04,0.05,0.08l-0.21,0.55c-0.01,0.04-0.05,0.06-0.09,0.06H61.8c-0.04,0-0.05-0.02-0.04-0.06l0.15-0.4l-0.94,0.14
			l-0.17,0.45c-0.14,0.36,0.06,0.65,0.44,0.65h1.41c0.38,0,0.8-0.29,0.94-0.65l0.35-0.92C64.08,22.95,63.93,22.79,63.61,22.69z"/>
		<polygon class="st0" points="67.73,20.93 67.14,22.48 65.94,22.48 66.53,20.93 65.63,20.93 64.12,24.88 65.02,24.88 65.64,23.27 
			66.84,23.27 66.22,24.88 67.12,24.88 68.64,20.93 		"/>
		<polygon class="st0" points="69.51,20.93 68,24.88 68.9,24.88 70.41,20.93 		"/>
		<path class="st0" d="M73.51,20.93h-2.23l-1.51,3.95h0.9l0.55-1.45h1.32c0.38,0,0.8-0.29,0.94-0.65l0.46-1.2
			C74.09,21.22,73.89,20.93,73.51,20.93z M72.66,22.59c-0.01,0.04-0.05,0.06-0.08,0.06h-1.05l0.36-0.94h1.05
			c0.04,0,0.05,0.02,0.04,0.06L72.66,22.59z"/>
	</g>
</g>
</svg>
