<?xml version="1.0" encoding="utf-8"?>
<!-- Generator: Adobe Illustrator 27.5.0, SVG Export Plug-In . SVG Version: 6.00 Build 0)  -->
<svg version="1.1" id="레이어_1" xmlns="http://www.w3.org/2000/svg" xmlns:xlink="http://www.w3.org/1999/xlink" x="0px"
	 y="0px" viewBox="0 0 106 32" style="enable-background:new 0 0 106 32;" xml:space="preserve">
<style type="text/css">
	.st0{fill:#001E50;}
</style>
<path class="st0" d="M52.71,0.85h1.09c2.24,0.11,4.46,0.7,6.45,1.76c3.43,1.81,6.09,5.03,7.25,8.73c0.31,0.99,0.52,2.01,0.61,3.05
	c0.09,0.81,0.04,1.63,0.04,2.44c-0.14,2.29-0.82,4.55-1.97,6.53c-1.12,1.93-2.67,3.61-4.51,4.88c-2.31,1.59-5.08,2.49-7.87,2.61
	h-1.24c-0.63-0.04-1.26-0.1-1.88-0.21c-3.12-0.52-6.06-2.05-8.25-4.33c-2.55-2.61-4.12-6.19-4.22-9.85
	c-0.06-0.45-0.03-0.89,0.01-1.34c-0.01-0.41,0.07-0.82,0.08-1.23l0.03-0.04c0.48-4.05,2.79-7.82,6.1-10.19
	C46.81,1.93,49.74,0.95,52.71,0.85 M51.82,2.3c-0.16,0.04-0.32,0.05-0.48,0.06c-0.24,0.05-0.49,0.07-0.73,0.13
	c-0.1,0.02-0.2,0.04-0.3,0.06c-0.08,0.02-0.16,0.04-0.25,0.06c-0.24,0.06-0.48,0.12-0.72,0.2c-0.03,0.01-0.1,0.02-0.14,0.03
	c-0.06,0.02-0.12,0.05-0.18,0.07c-0.06,0.02-0.12,0.04-0.18,0.05C48.8,3,48.77,3.02,48.74,3.04c0.05,0.11,0.1,0.21,0.15,0.32
	c0.07,0.16,0.14,0.32,0.21,0.48c0.09,0.21,0.18,0.41,0.27,0.62c0.08,0.18,0.17,0.36,0.24,0.55c0.16,0.34,0.3,0.69,0.46,1.03
	c0.76,1.71,1.53,3.42,2.29,5.13c0.08,0.18,0.17,0.36,0.24,0.55c0.08,0.18,0.16,0.36,0.25,0.55c0.09,0.19,0.14,0.41,0.31,0.54
	c0.15-0.13,0.22-0.32,0.29-0.49c0.09-0.2,0.18-0.4,0.27-0.6c0.83-1.85,1.66-3.71,2.48-5.56c0.08-0.18,0.16-0.36,0.24-0.55
	c0.08-0.18,0.16-0.37,0.24-0.55c0.08-0.18,0.16-0.37,0.24-0.55c0.09-0.2,0.18-0.4,0.26-0.6c0.08-0.18,0.16-0.37,0.24-0.55
	c0.05-0.11,0.1-0.22,0.16-0.33c-0.09-0.04-0.19-0.08-0.28-0.11c-0.06-0.02-0.12-0.04-0.19-0.06c-0.03-0.01-0.1-0.03-0.14-0.03
	c-0.23-0.08-0.48-0.14-0.72-0.2c-0.18-0.04-0.37-0.08-0.55-0.12c-0.24-0.04-0.49-0.07-0.73-0.12c-0.16-0.01-0.33-0.03-0.49-0.06
	c-0.3-0.03-0.61-0.01-0.91-0.06C53.01,2.21,52.41,2.28,51.82,2.3 M46.44,4.05c-1.87,1.09-3.46,2.64-4.66,4.44
	c0.03,0.15,0.1,0.28,0.17,0.41c0.09,0.18,0.18,0.36,0.27,0.54c0.1,0.2,0.2,0.41,0.3,0.61c1.06,2.16,2.15,4.31,3.21,6.47
	c0.03,0.06,0.06,0.11,0.09,0.17c0.12,0.24,0.24,0.49,0.36,0.74c0.83,1.68,1.67,3.36,2.51,5.04c0.04,0.1,0.12,0.15,0.23,0.15
	c0.09-0.17,0.18-0.35,0.25-0.53c0.07-0.17,0.14-0.33,0.21-0.5c0.07-0.16,0.14-0.32,0.21-0.48c0.07-0.17,0.15-0.33,0.22-0.5
	c0.07-0.16,0.14-0.32,0.21-0.48c0.53-1.22,1.07-2.44,1.6-3.66c0.06-0.13,0.19-0.23,0.34-0.21c0.81,0,1.63,0,2.44,0
	c0.16-0.02,0.29,0.1,0.35,0.24c0.53,1.21,1.07,2.42,1.59,3.64c0.07,0.16,0.14,0.32,0.21,0.48c0.07,0.17,0.14,0.33,0.22,0.5
	c0.07,0.16,0.14,0.32,0.2,0.48c0.16,0.34,0.28,0.69,0.47,1.02l0.15,0c0.68-1.3,1.31-2.62,1.97-3.92c1.46-2.96,2.94-5.92,4.4-8.88
	c0.11-0.22,0.21-0.44,0.33-0.65c0.1-0.21,0.19-0.43,0.33-0.62c-0.12-0.15-0.23-0.31-0.34-0.47c-1.15-1.62-2.64-3-4.36-4.01
	c-0.06-0.04-0.13-0.07-0.21-0.08c-0.76,1.67-1.51,3.33-2.26,5c-0.1,0.22-0.2,0.44-0.3,0.67c-0.07,0.16-0.14,0.32-0.22,0.48
	c-0.09,0.21-0.18,0.41-0.27,0.62c-0.09,0.2-0.18,0.4-0.27,0.6c-0.52,1.15-1.03,2.3-1.55,3.45c-0.06,0.12-0.1,0.25-0.18,0.36
	c-0.1,0.11-0.26,0.1-0.39,0.11c-0.75,0-1.51,0-2.26,0c-0.16,0-0.34-0.05-0.39-0.22c-0.56-1.23-1.12-2.47-1.67-3.7
	c-0.09-0.2-0.18-0.4-0.27-0.6c-0.09-0.21-0.18-0.41-0.28-0.62c-0.09-0.2-0.18-0.4-0.27-0.6c-0.82-1.86-1.68-3.7-2.5-5.56
	C46.57,3.98,46.5,4.01,46.44,4.05 M65.87,11.11c-0.27,0.6-0.58,1.17-0.86,1.76c-0.08,0.16-0.16,0.32-0.24,0.49
	c-0.08,0.16-0.16,0.33-0.24,0.49c-0.03,0.06-0.06,0.12-0.09,0.17c-0.03,0.06-0.06,0.13-0.09,0.19c-0.02,0.03-0.05,0.09-0.06,0.13
	c-0.03,0.06-0.06,0.12-0.09,0.17c-0.05,0.11-0.1,0.21-0.15,0.32c-0.99,2.01-2.01,4.01-3,6.03c-0.02,0.03-0.05,0.09-0.06,0.12
	c-0.04,0.08-0.08,0.16-0.12,0.25c-0.04,0.08-0.08,0.16-0.12,0.25c-0.04,0.08-0.08,0.16-0.12,0.24c-0.01,0.03-0.04,0.09-0.06,0.12
	c-0.03,0.06-0.06,0.11-0.09,0.17c-0.1,0.2-0.2,0.41-0.3,0.61c-0.74,1.52-1.51,3.03-2.27,4.55c-0.1,0.26-0.44,0.4-0.68,0.24
	c-0.25-0.18-0.31-0.5-0.44-0.76c-0.09-0.2-0.18-0.4-0.27-0.6c-0.9-2.04-1.82-4.07-2.73-6.11c-0.08-0.18-0.17-0.36-0.24-0.55
	c-0.08-0.18-0.17-0.37-0.24-0.55c-0.05-0.08-0.15-0.13-0.23-0.07c-0.13,0.22-0.21,0.46-0.32,0.7c-0.92,2.05-1.84,4.1-2.75,6.16
	c-0.07,0.16-0.14,0.32-0.21,0.47c-0.09,0.21-0.18,0.41-0.27,0.62c-0.09,0.18-0.15,0.37-0.26,0.54c-0.12,0.17-0.35,0.26-0.55,0.18
	c-0.15-0.05-0.23-0.19-0.3-0.32c-0.75-1.52-1.52-3.04-2.27-4.56c-0.04-0.08-0.08-0.16-0.12-0.24c-0.08-0.16-0.16-0.33-0.24-0.49
	c-0.02-0.03-0.05-0.09-0.06-0.12c-0.04-0.08-0.08-0.16-0.12-0.24c-0.04-0.08-0.08-0.16-0.12-0.24c-0.03-0.07-0.06-0.13-0.09-0.2
	c-0.05-0.1-0.1-0.2-0.15-0.29c-0.06-0.12-0.12-0.25-0.18-0.37c-0.99-2.02-2.01-4.02-3-6.04c-0.01-0.03-0.05-0.09-0.06-0.12
	c-0.07-0.15-0.14-0.29-0.21-0.43c-0.07-0.14-0.14-0.28-0.21-0.42c-0.03-0.06-0.06-0.13-0.09-0.19c-0.03-0.06-0.06-0.11-0.09-0.17
	c-0.31-0.62-0.61-1.24-0.92-1.86c-0.12,0.19-0.17,0.41-0.24,0.61c-1.1,3.38-0.76,7.18,0.89,10.32c0.01,0.02,0.02,0.05,0.02,0.07
	c0.16,0.27,0.3,0.55,0.47,0.82c1.47,2.41,3.72,4.34,6.32,5.45c0.1,0.04,0.2,0.08,0.31,0.12c0.08,0.03,0.15,0.06,0.23,0.09
	c0.09,0.03,0.17,0.06,0.26,0.09c0.06,0.02,0.12,0.04,0.18,0.07c0.06,0.02,0.12,0.04,0.18,0.06c0.16,0.05,0.32,0.09,0.47,0.14
	c0.24,0.07,0.49,0.12,0.73,0.18c0.1,0.02,0.2,0.04,0.3,0.06c0.1,0.02,0.2,0.04,0.31,0.06c0.49,0.06,0.98,0.15,1.47,0.15
	c0.5,0.05,1.01,0.06,1.52,0c0.51-0.01,1.03-0.08,1.53-0.16c0.1-0.02,0.2-0.04,0.31-0.06c0.1-0.02,0.2-0.04,0.3-0.06
	c0.24-0.06,0.49-0.12,0.73-0.18c0.16-0.05,0.31-0.09,0.47-0.14c0.06-0.02,0.12-0.04,0.19-0.07c0.03-0.01,0.1-0.03,0.13-0.03
	c0.18-0.07,0.36-0.13,0.54-0.2c0.1-0.04,0.2-0.08,0.3-0.12c1.5-0.63,2.87-1.55,4.05-2.66c1.66-1.55,2.9-3.53,3.61-5.68
	C67.02,17.17,66.98,13.94,65.87,11.11L65.87,11.11z"/>
</svg>
